<svg width="24" height="24" viewBox="0 0 24 24" fill="none" xmlns="http://www.w3.org/2000/svg">
<path fill-rule="evenodd" clip-rule="evenodd" d="M12 22.1176C17.5878 22.1176 22.1176 17.5878 22.1176 12C22.1176 6.41218 17.5878 1.88235 12 1.88235C6.41218 1.88235 1.88235 6.41218 1.88235 12C1.88235 17.5878 6.41218 22.1176 12 22.1176ZM12 24C18.6274 24 24 18.6274 24 12C24 5.37258 18.6274 0 12 0C5.37258 0 0 5.37258 0 12C0 18.6274 5.37258 24 12 24Z" fill="#9B21B9"/>
<path fill-rule="evenodd" clip-rule="evenodd" d="M16.9952 7.54917C17.4567 7.95041 17.5055 8.64977 17.1042 9.11125L10.9967 16.1357C10.804 16.3573 10.5312 16.4933 10.2383 16.5138C9.94531 16.5342 9.65623 16.4374 9.43462 16.2448L6.61172 13.7903C6.15024 13.3891 6.10141 12.6897 6.50265 12.2283C6.90389 11.7668 7.60325 11.7179 8.06473 12.1192L10.0521 13.8471L15.4331 7.65824C15.8343 7.19676 16.5337 7.14793 16.9952 7.54917Z" fill="#9B21B9"/>
</svg>
