<svg width="" height="" viewBox="0 0 463 292" fill="none" xmlns="http://www.w3.org/2000/svg">
<rect width="463" height="291" fill="white"/>
<circle cx="233" cy="145" r="145" fill="#F9DF80"/>
<path d="M105.722 162.074L133.573 188.142L137.573 175.142L105.722 162.074Z" fill="black"/>
<path d="M129.923 159.005L164.093 185.365L125.612 236.249L86.175 215.715L129.923 159.005Z" fill="white" stroke="black" stroke-width="2"/>
<path d="M361 160L335.231 185.04L331.23 172.04L361 160Z" fill="black"/>
<rect x="300.327" y="176.347" width="40" height="69.7894" transform="rotate(-23.3148 300.327 176.347)" fill="white" stroke="black" stroke-width="2"/>
<mask id="path-6-outside-1" maskUnits="userSpaceOnUse" x="102.478" y="97.2013" width="259" height="116" fill="black">
<rect fill="white" x="102.478" y="97.2013" width="259" height="116"/>
<path fill-rule="evenodd" clip-rule="evenodd" d="M165.816 105.871C169.973 101.748 175.695 99.2013 182.013 99.2013H280.013C286.392 99.2013 292.165 101.798 296.331 105.993L357.32 159.688L302.997 189.065C302.543 201.368 292.426 211.201 280.013 211.201H182.013C169.31 211.201 159.013 200.904 159.013 188.201V182.833L106.478 160.754L165.816 105.871Z"/>
</mask>
<path fill-rule="evenodd" clip-rule="evenodd" d="M165.816 105.871C169.973 101.748 175.695 99.2013 182.013 99.2013H280.013C286.392 99.2013 292.165 101.798 296.331 105.993L357.32 159.688L302.997 189.065C302.543 201.368 292.426 211.201 280.013 211.201H182.013C169.31 211.201 159.013 200.904 159.013 188.201V182.833L106.478 160.754L165.816 105.871Z" fill="black"/>
<path d="M165.816 105.871L167.174 107.34L167.2 107.316L167.225 107.291L165.816 105.871ZM296.331 105.993L294.912 107.402L294.959 107.45L295.009 107.494L296.331 105.993ZM357.32 159.688L358.272 161.447L360.795 160.082L358.642 158.187L357.32 159.688ZM302.997 189.065L302.046 187.306L301.041 187.85L300.998 188.992L302.997 189.065ZM159.013 182.833H161.013V181.504L159.788 180.989L159.013 182.833ZM106.478 160.754L105.12 159.286L102.84 161.394L105.703 162.598L106.478 160.754ZM182.013 97.2013C175.147 97.2013 168.924 99.9719 164.408 104.451L167.225 107.291C171.022 103.525 176.244 101.201 182.013 101.201V97.2013ZM280.013 97.2013H182.013V101.201H280.013V97.2013ZM297.75 104.583C293.224 100.026 286.946 97.2013 280.013 97.2013V101.201C285.838 101.201 291.106 103.57 294.912 107.402L297.75 104.583ZM358.642 158.187L297.653 104.492L295.009 107.494L355.999 161.189L358.642 158.187ZM303.948 190.825L358.272 161.447L356.369 157.929L302.046 187.306L303.948 190.825ZM280.013 213.201C293.506 213.201 304.502 202.513 304.996 189.139L300.998 188.992C300.583 200.223 291.346 209.201 280.013 209.201V213.201ZM182.013 213.201H280.013V209.201H182.013V213.201ZM157.013 188.201C157.013 202.008 168.206 213.201 182.013 213.201V209.201C170.415 209.201 161.013 199.799 161.013 188.201H157.013ZM157.013 182.833V188.201H161.013V182.833H157.013ZM105.703 162.598L158.238 184.677L159.788 180.989L107.253 158.91L105.703 162.598ZM164.458 104.403L105.12 159.286L107.836 162.222L167.174 107.34L164.458 104.403Z" fill="white" mask="url(#path-6-outside-1)"/>
<path d="M174 104.201L171.301 147.504L169.013 184.201" stroke="#201E1E" stroke-width="2" stroke-linecap="square" stroke-linejoin="bevel"/>
<path d="M179 121.201L174.67 140.688L171 157.201" stroke="#201E1E" stroke-width="2" stroke-linecap="square" stroke-linejoin="bevel"/>
<path d="M286 104.201L289.785 148.045L292.992 185.201" stroke="#201E1E" stroke-width="2" stroke-linecap="square" stroke-linejoin="bevel"/>
<path d="M282 125.201L285.789 135.486L289 144.201" stroke="#201E1E" stroke-width="2" stroke-linecap="square" stroke-linejoin="bevel"/>
<path d="M186.3 160.073H186.902C187.593 160.073 188.088 159.985 188.386 159.807C188.685 159.63 188.834 159.345 188.834 158.953C188.834 158.561 188.685 158.277 188.386 158.099C188.088 157.922 187.593 157.833 186.902 157.833H186.3V160.073ZM186.3 155.789H186.804C187.663 155.789 188.092 155.449 188.092 154.767C188.092 154.086 187.663 153.745 186.804 153.745H186.3V155.789ZM183.556 151.645H187.644C188.615 151.645 189.352 151.879 189.856 152.345C190.36 152.812 190.612 153.484 190.612 154.361C190.612 154.893 190.514 155.337 190.318 155.691C190.132 156.037 189.842 156.331 189.45 156.573C189.842 156.648 190.174 156.765 190.444 156.923C190.724 157.073 190.948 157.259 191.116 157.483C191.294 157.707 191.42 157.959 191.494 158.239C191.569 158.519 191.606 158.818 191.606 159.135C191.606 159.63 191.518 160.069 191.34 160.451C191.172 160.834 190.93 161.156 190.612 161.417C190.304 161.679 189.926 161.875 189.478 162.005C189.03 162.136 188.526 162.201 187.966 162.201H183.556V151.645ZM195.994 151.645V159.877H199.284V162.201H193.25V151.645H195.994ZM206.878 158.281L205.646 154.767L204.414 158.281H206.878ZM207.606 160.367H203.686L203.056 162.201H200.13L204.148 151.645H207.144L211.162 162.201H208.236L207.606 160.367ZM219.568 155.173C218.934 154.399 218.15 154.011 217.216 154.011C216.806 154.011 216.423 154.086 216.068 154.235C215.723 154.385 215.424 154.59 215.172 154.851C214.92 155.103 214.72 155.407 214.57 155.761C214.43 156.116 214.36 156.499 214.36 156.909C214.36 157.329 214.43 157.717 214.57 158.071C214.72 158.426 214.92 158.734 215.172 158.995C215.434 159.257 215.737 159.462 216.082 159.611C216.428 159.761 216.801 159.835 217.202 159.835C218.08 159.835 218.868 159.462 219.568 158.715V161.963L219.288 162.061C218.868 162.211 218.476 162.318 218.112 162.383C217.748 162.458 217.389 162.495 217.034 162.495C216.306 162.495 215.606 162.36 214.934 162.089C214.272 161.809 213.684 161.422 213.17 160.927C212.666 160.423 212.26 159.831 211.952 159.149C211.644 158.459 211.49 157.707 211.49 156.895C211.49 156.083 211.64 155.341 211.938 154.669C212.246 153.988 212.652 153.405 213.156 152.919C213.67 152.425 214.262 152.042 214.934 151.771C215.606 151.491 216.311 151.351 217.048 151.351C217.468 151.351 217.879 151.398 218.28 151.491C218.691 151.575 219.12 151.711 219.568 151.897V155.173ZM224.499 155.999L227.845 151.645H231.233L227.047 156.643L231.625 162.201H228.069L224.499 157.623V162.201H221.755V151.645H224.499V155.999ZM243.397 154.347C243.098 154.105 242.8 153.927 242.501 153.815C242.202 153.694 241.913 153.633 241.633 153.633C241.278 153.633 240.989 153.717 240.765 153.885C240.541 154.053 240.429 154.273 240.429 154.543C240.429 154.73 240.485 154.884 240.597 155.005C240.709 155.127 240.854 155.234 241.031 155.327C241.218 155.411 241.423 155.486 241.647 155.551C241.88 155.617 242.109 155.687 242.333 155.761C243.229 156.06 243.882 156.461 244.293 156.965C244.713 157.46 244.923 158.109 244.923 158.911C244.923 159.453 244.83 159.943 244.643 160.381C244.466 160.82 244.2 161.198 243.845 161.515C243.5 161.823 243.07 162.061 242.557 162.229C242.053 162.407 241.479 162.495 240.835 162.495C239.5 162.495 238.264 162.099 237.125 161.305L238.301 159.093C238.712 159.457 239.118 159.728 239.519 159.905C239.92 160.083 240.317 160.171 240.709 160.171C241.157 160.171 241.488 160.069 241.703 159.863C241.927 159.658 242.039 159.425 242.039 159.163C242.039 159.005 242.011 158.869 241.955 158.757C241.899 158.636 241.806 158.529 241.675 158.435C241.544 158.333 241.372 158.239 241.157 158.155C240.952 158.071 240.7 157.978 240.401 157.875C240.046 157.763 239.696 157.642 239.351 157.511C239.015 157.371 238.712 157.189 238.441 156.965C238.18 156.741 237.965 156.461 237.797 156.125C237.638 155.78 237.559 155.346 237.559 154.823C237.559 154.301 237.643 153.829 237.811 153.409C237.988 152.98 238.231 152.616 238.539 152.317C238.856 152.009 239.239 151.771 239.687 151.603C240.144 151.435 240.653 151.351 241.213 151.351C241.736 151.351 242.282 151.426 242.851 151.575C243.42 151.715 243.966 151.925 244.489 152.205L243.397 154.347ZM249.396 155.719H253.358V151.645H256.102V162.201H253.358V157.847H249.396V162.201H246.652V151.645H249.396V155.719ZM261.058 151.645V162.201H258.314V151.645H261.058ZM266.007 156.363H266.525C267.067 156.363 267.482 156.251 267.771 156.027C268.061 155.803 268.205 155.481 268.205 155.061C268.205 154.641 268.061 154.319 267.771 154.095C267.482 153.871 267.067 153.759 266.525 153.759H266.007V156.363ZM272.041 162.201H268.625L266.007 158.141V162.201H263.263V151.645H267.533C268.121 151.645 268.635 151.734 269.073 151.911C269.512 152.079 269.871 152.313 270.151 152.611C270.441 152.91 270.655 153.255 270.795 153.647C270.945 154.039 271.019 154.459 271.019 154.907C271.019 155.71 270.823 156.363 270.431 156.867C270.049 157.362 269.479 157.698 268.723 157.875L272.041 162.201ZM277.207 153.969V162.201H274.463V153.969H272.209V151.645H279.461V153.969H277.207Z" fill="#343030"/>
<rect x="150.013" y="279.201" width="163" height="11" rx="5" fill="white" stroke="black" stroke-width="2"/>
<path d="M159.013 182.201H303.013C308.536 182.201 313.013 186.678 313.013 192.201V268.201C313.013 273.724 308.536 278.201 303.013 278.201H159.013C153.49 278.201 149.013 273.724 149.013 268.201V192.201C149.013 186.678 153.49 182.201 159.013 182.201Z" fill="white" stroke="black" stroke-width="2"/>
<path d="M153.013 195.701V192.201C153.013 188.888 155.699 186.201 159.013 186.201H163.013" stroke="black" stroke-linecap="round"/>
<path d="M153.013 198.201L153.013 199.201" stroke="black" stroke-linecap="round"/>
<rect x="271.513" y="230.701" width="30" height="38" fill="#F9DF80" stroke="black"/>
<path d="M246.376 230.132C246.376 228.166 243.91 226.304 240.13 225.149C241.003 221.303 240.615 218.243 238.907 217.263C238.513 217.033 238.053 216.924 237.55 216.924V218.273C237.828 218.273 238.053 218.327 238.24 218.43C239.064 218.902 239.422 220.698 239.143 223.008C239.076 223.576 238.967 224.175 238.834 224.786C237.647 224.496 236.35 224.272 234.987 224.127C234.17 223.008 233.322 221.992 232.467 221.103C234.442 219.271 236.296 218.267 237.556 218.267V216.918C235.89 216.918 233.709 218.103 231.504 220.16C229.299 218.116 227.118 216.942 225.453 216.942V218.291C226.707 218.291 228.566 219.289 230.541 221.109C229.693 221.998 228.845 223.008 228.039 224.127C226.67 224.272 225.374 224.496 224.186 224.792C224.047 224.187 223.944 223.601 223.871 223.038C223.587 220.728 223.938 218.932 224.756 218.454C224.938 218.345 225.174 218.297 225.453 218.297V216.948C224.944 216.948 224.483 217.057 224.084 217.287C222.381 218.267 222 221.321 222.878 225.155C219.11 226.316 216.657 228.172 216.657 230.132C216.657 232.097 219.122 233.96 222.902 235.115C222.03 238.961 222.418 242.021 224.126 243.001C224.52 243.23 224.98 243.339 225.489 243.339C227.155 243.339 229.336 242.154 231.541 240.098C233.746 242.142 235.926 243.315 237.592 243.315C238.101 243.315 238.561 243.206 238.961 242.976C240.664 241.997 241.045 238.943 240.167 235.109C243.923 233.954 246.376 232.091 246.376 230.132ZM238.489 226.098C238.265 226.878 237.986 227.683 237.671 228.487C237.423 228.003 237.162 227.519 236.877 227.035C236.599 226.552 236.302 226.08 236.005 225.62C236.865 225.747 237.695 225.905 238.489 226.098ZM235.714 232.539C235.242 233.355 234.757 234.129 234.254 234.849C233.352 234.927 232.437 234.97 231.516 234.97C230.602 234.97 229.687 234.927 228.79 234.855C228.288 234.135 227.797 233.367 227.324 232.557C226.864 231.765 226.446 230.96 226.064 230.15C226.44 229.34 226.864 228.529 227.318 227.737C227.791 226.921 228.275 226.147 228.778 225.427C229.681 225.348 230.596 225.306 231.516 225.306C232.431 225.306 233.346 225.348 234.242 225.421C234.745 226.14 235.236 226.908 235.708 227.719C236.169 228.511 236.587 229.315 236.968 230.126C236.587 230.936 236.169 231.746 235.714 232.539ZM237.671 231.752C237.998 232.563 238.277 233.373 238.507 234.159C237.713 234.353 236.877 234.516 236.011 234.643C236.308 234.177 236.605 233.7 236.883 233.21C237.162 232.726 237.423 232.236 237.671 231.752ZM231.528 238.205C230.965 237.624 230.402 236.977 229.844 236.27C230.39 236.294 230.947 236.312 231.51 236.312C232.08 236.312 232.643 236.3 233.194 236.27C232.649 236.977 232.086 237.624 231.528 238.205ZM227.022 234.643C226.161 234.516 225.331 234.359 224.538 234.165C224.762 233.385 225.041 232.581 225.356 231.777C225.604 232.26 225.864 232.744 226.149 233.228C226.434 233.712 226.725 234.183 227.022 234.643ZM231.498 222.058C232.062 222.639 232.625 223.286 233.182 223.994C232.637 223.969 232.08 223.951 231.516 223.951C230.947 223.951 230.384 223.963 229.832 223.994C230.377 223.286 230.941 222.639 231.498 222.058ZM227.015 225.62C226.719 226.086 226.422 226.564 226.143 227.054C225.864 227.537 225.604 228.021 225.356 228.505C225.029 227.695 224.75 226.884 224.52 226.098C225.313 225.911 226.149 225.747 227.015 225.62ZM221.533 233.192C219.389 232.279 218.002 231.081 218.002 230.132C218.002 229.182 219.389 227.979 221.533 227.072C222.054 226.848 222.624 226.648 223.211 226.461C223.556 227.646 224.011 228.88 224.574 230.144C224.017 231.402 223.569 232.629 223.229 233.809C222.63 233.621 222.06 233.415 221.533 233.192ZM224.792 241.833C223.968 241.362 223.611 239.566 223.89 237.256C223.956 236.687 224.065 236.088 224.199 235.478C225.386 235.768 226.682 235.992 228.045 236.137C228.863 237.256 229.711 238.271 230.565 239.16C228.59 240.993 226.737 241.997 225.477 241.997C225.204 241.991 224.974 241.936 224.792 241.833ZM239.161 237.225C239.446 239.535 239.095 241.331 238.277 241.809C238.095 241.918 237.859 241.966 237.58 241.966C236.326 241.966 234.466 240.969 232.492 239.148C233.34 238.259 234.188 237.249 234.993 236.131C236.363 235.986 237.659 235.762 238.846 235.466C238.986 236.076 239.095 236.663 239.161 237.225ZM241.493 233.192C240.972 233.415 240.403 233.615 239.815 233.802C239.47 232.617 239.016 231.384 238.452 230.12C239.01 228.862 239.458 227.634 239.797 226.455C240.397 226.642 240.966 226.848 241.499 227.072C243.644 227.985 245.031 229.182 245.031 230.132C245.025 231.081 243.638 232.285 241.493 233.192Z" fill="#C4C4C4"/>
<path d="M231.51 232.895C233.039 232.895 234.278 231.658 234.278 230.132C234.278 228.605 233.039 227.368 231.51 227.368C229.981 227.368 228.742 228.605 228.742 230.132C228.742 231.658 229.981 232.895 231.51 232.895Z" fill="#C4C4C4"/>
<g clip-path="url(#clip0)">
<path fill-rule="evenodd" clip-rule="evenodd" d="M278.638 262.976L277.738 259.151V260.976V262.976H276.213V255.051H277.738V259.151L278.613 255.051H280.088L279.188 259.151L280.188 262.976H278.638Z" fill="black"/>
<path fill-rule="evenodd" clip-rule="evenodd" d="M282.038 262.976V255.051H285.413V256.401H283.713V258.126H284.838V259.676H283.713V261.576H285.413V262.976H282.038Z" fill="black"/>
<path d="M280.213 237.351H276.188V253.501H280.213V237.351Z" fill="black"/>
<path d="M296.838 239.001H292.813V253.501H296.838V239.001Z" fill="black"/>
<path d="M291.288 235.426H287.263V253.501H291.288V235.426Z" fill="black"/>
<path d="M285.738 241.701H281.713V253.501H285.738V241.701Z" fill="black"/>
<path fill-rule="evenodd" clip-rule="evenodd" d="M289.788 262.976L289.263 260.501L288.638 262.976H287.188L288.413 259.051L287.263 255.051H288.813L289.313 257.676L289.938 255.051H291.388L290.188 258.826L291.338 262.976H289.788Z" fill="black"/>
<path fill-rule="evenodd" clip-rule="evenodd" d="M295.313 260.001H294.713V262.976H293.188V255.051H295.313C296.113 255.051 296.813 255.526 296.813 256.626V258.401C296.813 259.526 296.113 260.001 295.313 260.001ZM295.363 256.701C295.363 256.451 295.263 256.351 295.088 256.351H294.713V258.826H295.088C295.263 258.826 295.363 258.726 295.363 258.476V256.701Z" fill="black"/>
</g>
<g clip-path="url(#clip1)">
<path d="M201.002 204.301L200.965 204.14C197.36 204.986 193.966 206.525 191.953 207.544C191.738 206.178 191.203 204.737 190.494 203.181C189.478 200.95 187.825 199.547 185.843 198.81C185.732 197.934 185.273 196.084 183.405 194.3C183.405 194.3 181.64 194.513 179.214 198.433C177.693 198.715 176.162 199.209 174.706 199.872C173.104 200.602 171.578 201.543 170.256 202.645C165.54 201.833 164.18 203.059 164.18 203.059C164.323 206.121 165.838 207.747 166.25 208.134C165.629 210.003 165.649 212.019 166.586 214.075C167.293 215.627 168.104 216.939 169.088 217.952C166.985 218.819 163.731 220.337 160.834 222.425L160.93 222.559C163.844 220.458 167.122 218.938 169.214 218.079C169.423 218.286 169.64 218.48 169.866 218.661C167.862 219.653 164.508 221.494 161.607 223.947L161.714 224.073C164.638 221.6 168.025 219.752 170.011 218.773C172.256 220.481 175.317 220.85 179.788 219.367C179.368 220.049 179.065 221.02 179.347 222.301C178.702 223.071 176.531 225.22 173.74 223.245C173.74 223.245 172.135 222.044 170.401 222.683C170.401 222.683 168.762 223.4 170.75 223.747C170.75 223.747 172.072 223.763 173.7 225.346C173.7 225.346 176.176 228.183 180.425 224.975L181.97 228.367C181.97 228.367 182.417 229.612 181.497 230.514C181.497 230.514 181.052 231.26 181.866 231.19C181.866 231.19 185.033 230.049 183.895 227.55L182.21 223.852C182.21 223.852 181.42 222.44 181.91 221.602L184.677 227.676C184.677 227.676 185.288 229.149 184.788 230.041C184.788 230.041 184.697 231.168 185.684 230.417C185.684 230.417 187.65 229.159 186.634 226.664L183.881 220.495L184.386 220.265L187.235 226.391C188.451 228.794 190.69 228.136 190.69 228.136C191.904 227.884 190.994 227.213 190.994 227.213C189.993 227.005 189.283 225.578 189.283 225.578L186.539 219.556C187.515 219.788 188.016 221.206 188.016 221.206L189.701 224.905C190.839 227.404 193.779 225.763 193.779 225.763C194.365 225.194 193.51 225.04 193.51 225.04C192.227 225.142 191.58 223.988 191.58 223.988L189.371 219.14C188.51 217.25 187.257 216.612 186.236 216.438C190.576 213.918 192.089 211.459 192.057 208.724C194.072 207.872 197.765 206.482 201.632 205.886L201.607 205.723C197.762 206.316 194.09 207.689 192.053 208.547C192.043 208.273 192.018 207.996 191.979 207.717C193.982 206.702 197.389 205.151 201.008 204.301L201.002 204.301Z" fill="black"/>
<path d="M186.002 205.102C187.384 205.541 188.444 206.35 188.969 207.502C191.42 212.881 187.47 214.857 182.517 217.114C177.563 219.371 173.208 220.455 171.03 215.675C170.509 214.53 170.589 213.211 171.154 211.888C172.097 209.684 175.181 209.218 178.277 207.808C181.359 206.403 183.721 204.377 186.001 205.101L186.002 205.102Z" fill="white"/>
<path d="M176.558 213.528C177.008 214.515 176.815 215.57 176.129 215.883C175.442 216.195 174.52 215.649 174.07 214.661C173.62 213.673 173.812 212.619 174.499 212.306C175.185 211.993 176.108 212.54 176.558 213.527L176.558 213.528Z" fill="black"/>
<path d="M186.571 208.966C187.021 209.954 186.827 211.008 186.141 211.321C185.454 211.634 184.532 211.087 184.082 210.1C183.632 209.112 183.824 208.057 184.511 207.744C185.197 207.431 186.12 207.978 186.57 208.966L186.571 208.966Z" fill="black"/>
<path d="M171.309 222.753C171.366 222.877 171.265 223.044 171.086 223.126C170.906 223.207 170.714 223.174 170.658 223.049C170.601 222.925 170.701 222.758 170.881 222.676C171.06 222.594 171.252 222.628 171.309 222.753L171.309 222.753Z" fill="white"/>
<path d="M172.427 222.847C172.484 222.971 172.383 223.138 172.204 223.22C172.024 223.301 171.833 223.268 171.776 223.143C171.719 223.019 171.819 222.852 171.999 222.77C172.179 222.688 172.37 222.722 172.427 222.847L172.427 222.847Z" fill="white"/>
<path d="M173.274 223.246C173.331 223.37 173.231 223.537 173.051 223.619C172.872 223.701 172.68 223.667 172.623 223.542C172.566 223.418 172.667 223.251 172.846 223.169C173.026 223.087 173.217 223.121 173.274 223.246L173.274 223.246Z" fill="white"/>
<path d="M174.116 223.767C174.173 223.892 174.072 224.059 173.893 224.14C173.713 224.222 173.522 224.188 173.465 224.064C173.408 223.94 173.508 223.772 173.688 223.691C173.867 223.609 174.059 223.643 174.116 223.768L174.116 223.767Z" fill="white"/>
<path d="M174.985 224.217C175.042 224.341 174.942 224.508 174.762 224.59C174.582 224.672 174.391 224.638 174.334 224.513C174.277 224.389 174.377 224.222 174.557 224.14C174.737 224.058 174.928 224.092 174.985 224.217L174.985 224.217Z" fill="white"/>
<path d="M176.01 224.474C176.067 224.598 175.967 224.765 175.787 224.847C175.607 224.928 175.416 224.894 175.359 224.77C175.302 224.646 175.402 224.478 175.582 224.397C175.762 224.315 175.953 224.349 176.01 224.474L176.01 224.474Z" fill="white"/>
<path d="M177.243 224.395C177.3 224.519 177.2 224.686 177.02 224.768C176.841 224.85 176.649 224.816 176.592 224.692C176.536 224.567 176.636 224.4 176.815 224.318C176.995 224.236 177.187 224.27 177.244 224.395L177.243 224.395Z" fill="white"/>
<path d="M178.29 223.918C178.346 224.042 178.246 224.209 178.067 224.291C177.887 224.373 177.695 224.339 177.639 224.215C177.582 224.09 177.682 223.923 177.862 223.841C178.041 223.759 178.233 223.793 178.29 223.918L178.29 223.918Z" fill="white"/>
<path d="M179.272 223.261C179.329 223.385 179.229 223.552 179.049 223.634C178.87 223.716 178.678 223.682 178.621 223.557C178.564 223.433 178.665 223.266 178.844 223.184C179.024 223.102 179.215 223.136 179.272 223.261L179.272 223.261Z" fill="white"/>
</g>
<path d="M101.194 132.883L127.37 233.016C120.478 247.758 102.688 254.17 88.0962 246.919L67.8607 236.863C53.7878 229.87 46.5986 213.923 50.677 198.747L64.4751 147.401L101.194 132.883Z" fill="white" stroke="black" stroke-width="2"/>
<rect x="65.6314" y="203.585" width="14" height="49.8479" rx="7" transform="rotate(-144.377 65.6314 203.585)" fill="white" stroke="black" stroke-width="2"/>
<rect x="44.7584" y="208.404" width="16" height="58.8333" rx="8" transform="rotate(-143.794 44.7584 208.404)" fill="white" stroke="black" stroke-width="2"/>
<rect x="19.4305" y="187.533" width="16" height="58.8333" rx="8" transform="rotate(-142.386 19.4305 187.533)" fill="white" stroke="black" stroke-width="2"/>
<path d="M17.9032 190.327L49.6123 147.947C52.2592 144.41 57.2728 143.688 60.8104 146.335C64.3481 148.982 65.0701 153.995 62.4232 157.533L30.7142 199.912C28.0672 203.45 23.0536 204.172 19.516 201.525C15.9784 198.878 15.2563 193.864 17.9032 190.327Z" fill="white" stroke="black" stroke-width="2"/>
<mask id="path-46-inside-2" fill="white">
<path fill-rule="evenodd" clip-rule="evenodd" d="M45.6136 124.261C43.8125 125.441 42.0945 126.944 40.4647 128.792C29.7701 140.914 41.293 153.909 56.9221 163.659C66.4673 169.613 77.0685 172.076 85.254 170.881C90.9969 170.723 96.4825 167.471 99.201 161.919L106.516 146.978C109.832 140.204 107.968 132.035 102.042 127.37L81.3502 111.084C78.5303 108.864 75.046 107.657 71.4573 107.656L51.6392 107.653C46.7807 107.652 42.9923 111.861 43.5027 116.692L43.5514 117.153C43.6452 118.041 43.9329 118.897 44.3941 119.662C44.7846 120.309 45.0513 121.023 45.1806 121.768L45.6136 124.261Z"/>
</mask>
<path fill-rule="evenodd" clip-rule="evenodd" d="M45.6136 124.261C43.8125 125.441 42.0945 126.944 40.4647 128.792C29.7701 140.914 41.293 153.909 56.9221 163.659C66.4673 169.613 77.0685 172.076 85.254 170.881C90.9969 170.723 96.4825 167.471 99.201 161.919L106.516 146.978C109.832 140.204 107.968 132.035 102.042 127.37L81.3502 111.084C78.5303 108.864 75.046 107.657 71.4573 107.656L51.6392 107.653C46.7807 107.652 42.9923 111.861 43.5027 116.692L43.5514 117.153C43.6452 118.041 43.9329 118.897 44.3941 119.662C44.7846 120.309 45.0513 121.023 45.1806 121.768L45.6136 124.261Z" fill="white"/>
<path d="M40.4647 128.792L41.9645 130.115L41.9645 130.115L40.4647 128.792ZM45.6136 124.261L46.71 125.934L47.8089 125.213L47.5841 123.919L45.6136 124.261ZM56.9221 163.659L57.9806 161.962L57.9806 161.962L56.9221 163.659ZM85.254 170.881L85.199 168.882L85.0815 168.885L84.9652 168.902L85.254 170.881ZM99.201 161.919L97.4047 161.039L97.4047 161.039L99.201 161.919ZM106.516 146.978L108.312 147.857L108.312 147.857L106.516 146.978ZM102.042 127.37L100.805 128.941L100.805 128.941L102.042 127.37ZM81.3502 111.084L82.5872 109.512L82.5872 109.512L81.3502 111.084ZM71.4573 107.656L71.4569 109.656L71.4569 109.656L71.4573 107.656ZM51.6392 107.653L51.6395 105.653L51.6395 105.653L51.6392 107.653ZM43.5027 116.692L45.4916 116.482L45.4916 116.482L43.5027 116.692ZM43.5514 117.153L41.5624 117.363L41.5624 117.363L43.5514 117.153ZM44.3941 119.662L42.6816 120.695L42.6816 120.695L44.3941 119.662ZM45.1806 121.768L47.1511 121.426L47.1511 121.426L45.1806 121.768ZM41.9645 130.115C43.4885 128.387 45.0734 127.006 46.71 125.934L44.5171 122.588C42.5517 123.877 40.7004 125.501 38.9649 127.469L41.9645 130.115ZM57.9806 161.962C50.2529 157.141 43.7986 151.665 40.5486 146.106C38.9419 143.358 38.1725 140.682 38.3232 138.099C38.4725 135.539 39.5376 132.866 41.9645 130.115L38.9649 127.469C36.0445 130.779 34.5395 134.276 34.3299 137.866C34.1217 141.435 35.2046 144.89 37.0954 148.125C40.8405 154.531 47.9622 160.427 55.8636 165.356L57.9806 161.962ZM84.9652 168.902C77.3478 170.014 67.2189 167.724 57.9806 161.962L55.8636 165.356C65.7156 171.501 76.7892 174.138 85.5428 172.86L84.9652 168.902ZM97.4047 161.039C95.0274 165.895 90.231 168.743 85.199 168.882L85.309 172.88C91.7627 172.703 97.9376 169.048 100.997 162.798L97.4047 161.039ZM104.72 146.099L97.4047 161.039L100.997 162.798L108.312 147.857L104.72 146.099ZM100.805 128.941C105.99 133.023 107.621 140.172 104.72 146.099L108.312 147.857C112.043 140.237 109.946 131.046 103.279 125.798L100.805 128.941ZM80.1133 112.655L100.805 128.941L103.279 125.798L82.5872 109.512L80.1133 112.655ZM71.4569 109.656C74.597 109.657 77.6458 110.713 80.1133 112.655L82.5872 109.512C79.4148 107.015 75.4949 105.657 71.4576 105.656L71.4569 109.656ZM51.6388 109.653L71.4569 109.656L71.4576 105.656L51.6395 105.653L51.6388 109.653ZM45.4916 116.482C45.106 112.832 47.9682 109.652 51.6388 109.653L51.6395 105.653C45.5932 105.652 40.8785 110.89 41.5138 116.902L45.4916 116.482ZM45.5403 116.943L45.4916 116.482L41.5138 116.902L41.5624 117.363L45.5403 116.943ZM46.1066 118.629C45.7967 118.115 45.6033 117.539 45.5403 116.943L41.5624 117.363C41.687 118.542 42.0691 119.68 42.6816 120.695L46.1066 118.629ZM47.1511 121.426C46.9793 120.437 46.6252 119.488 46.1066 118.629L42.6816 120.695C42.944 121.13 43.1232 121.61 43.2101 122.11L47.1511 121.426ZM47.5841 123.919L47.1511 121.426L43.2101 122.11L43.6431 124.603L47.5841 123.919Z" fill="black" mask="url(#path-46-inside-2)"/>
<mask id="path-48-inside-3" fill="white">
<path fill-rule="evenodd" clip-rule="evenodd" d="M18.8899 115.66C19.4087 121.576 24.6255 125.952 30.5419 125.433L44.941 124.171C46.5708 134.094 55.4402 141.414 65.7173 140.878C76.7479 140.302 85.2231 130.893 84.6472 119.862C84.0712 108.831 74.6622 100.356 63.6315 100.932C62.6924 100.981 61.7718 101.094 60.8738 101.267C60.4312 101.251 59.9828 101.262 59.5303 101.302L28.6633 104.008C22.7468 104.527 18.3711 109.744 18.8899 115.66Z"/>
</mask>
<path fill-rule="evenodd" clip-rule="evenodd" d="M18.8899 115.66C19.4087 121.576 24.6255 125.952 30.5419 125.433L44.941 124.171C46.5708 134.094 55.4402 141.414 65.7173 140.878C76.7479 140.302 85.2231 130.893 84.6472 119.862C84.0712 108.831 74.6622 100.356 63.6315 100.932C62.6924 100.981 61.7718 101.094 60.8738 101.267C60.4312 101.251 59.9828 101.262 59.5303 101.302L28.6633 104.008C22.7468 104.527 18.3711 109.744 18.8899 115.66Z" fill="white"/>
<path d="M30.5419 125.433L30.3672 123.441L30.3672 123.441L30.5419 125.433ZM44.941 124.171L46.9146 123.847L46.614 122.017L44.7664 122.179L44.941 124.171ZM65.7173 140.878L65.8215 142.875L65.8215 142.875L65.7173 140.878ZM84.6472 119.862L82.6499 119.966L82.6499 119.966L84.6472 119.862ZM63.6315 100.932L63.7358 102.929L63.7358 102.929L63.6315 100.932ZM60.8738 101.267L60.8011 103.266L61.0282 103.274L61.2513 103.231L60.8738 101.267ZM59.5303 101.302L59.3556 99.3092L59.3556 99.3092L59.5303 101.302ZM28.6633 104.008L28.4886 102.016L28.4886 102.016L28.6633 104.008ZM30.3672 123.441C25.5511 123.863 21.3045 120.301 20.8823 115.485L16.8976 115.835C17.5128 122.852 23.6998 128.041 30.7166 127.426L30.3672 123.441ZM44.7664 122.179L30.3672 123.441L30.7166 127.426L45.1157 126.163L44.7664 122.179ZM65.613 138.88C56.365 139.363 48.3811 132.776 46.9146 123.847L42.9675 124.495C44.7606 135.413 54.5155 143.465 65.8215 142.875L65.613 138.88ZM82.6499 119.966C83.1683 129.894 75.5406 138.362 65.613 138.88L65.8215 142.875C77.9553 142.241 87.278 131.892 86.6445 119.758L82.6499 119.966ZM63.7358 102.929C73.6634 102.411 82.1315 110.039 82.6499 119.966L86.6445 119.758C86.0109 107.624 75.661 98.3013 63.5272 98.9349L63.7358 102.929ZM61.2513 103.231C62.0594 103.076 62.8887 102.974 63.7358 102.929L63.5272 98.9349C62.4961 98.9887 61.4842 99.1129 60.4962 99.3029L61.2513 103.231ZM59.705 103.294C60.0751 103.261 60.4409 103.252 60.8011 103.266L60.9464 99.2682C60.4216 99.2491 59.8906 99.2623 59.3556 99.3092L59.705 103.294ZM28.838 106L59.705 103.294L59.3556 99.3092L28.4886 102.016L28.838 106ZM20.8823 115.485C20.46 110.669 24.0219 106.423 28.838 106L28.4886 102.016C21.4718 102.631 16.2823 108.818 16.8976 115.835L20.8823 115.485Z" fill="black" mask="url(#path-48-inside-3)"/>
<path d="M88.3732 155.779C77.8011 157.291 39.5497 142.606 46.5946 112.662" stroke="black" stroke-width="2"/>
<path d="M81.4418 161.713C74.224 155.556 72.4018 146.728 78.2405 134.447" stroke="black" stroke-width="2"/>
<path fill-rule="evenodd" clip-rule="evenodd" d="M37.6967 157.927C36.3422 155.271 35.1262 152.335 34.0876 149.091L32.1828 149.701C33.3735 153.42 34.7918 156.753 36.3834 159.737L37.6967 157.927ZM39.7897 165.259C41.9926 168.358 44.4008 170.967 46.9144 173.149L48.0955 171.521C45.5989 169.334 43.2088 166.698 41.0343 163.544L39.7897 165.259ZM62.5212 179.566C59.3926 178.618 56.113 177.184 52.8926 175.126L51.7155 176.749C54.9014 178.796 58.1516 180.264 61.2836 181.271L62.5212 179.566ZM68.9612 180.907L67.6257 182.747C70.9034 183.223 73.8616 183.205 76.2301 182.867L75.947 180.887C74.0106 181.164 71.6221 181.21 68.9612 180.907Z" fill="black"/>
<path d="M379 235.228C378.973 243.613 377.481 247.266 374.416 249.057C372.803 250 370.64 250.503 367.73 250.755C364.898 251 361.476 251 357.325 251L357 251C348.524 251 340.219 249.578 334.069 246.123C327.981 242.703 324 237.301 324 229.15C324 212.727 337.196 199.387 353.562 199.153C354.635 200.325 355.638 201.415 356.578 202.439C361.851 208.176 365.174 211.792 368.068 215.741C371.487 220.405 374.314 225.546 379 235.228Z" fill="white" stroke="black" stroke-width="2"/>
<rect x="372.411" y="242.177" width="9.31631" height="6.84423" rx="2.5" transform="rotate(71.2901 372.411 242.177)" fill="white" stroke="black"/>
<mask id="path-55-inside-4" fill="white">
<path fill-rule="evenodd" clip-rule="evenodd" d="M399.445 253.33C400.371 256.231 403.068 258.201 406.114 258.201H436.565C439.48 258.201 442.09 256.394 443.116 253.666L450.134 235.008C450.209 234.811 450.274 234.613 450.329 234.415C452.047 230.527 453 226.225 453 221.701C453 204.304 438.897 190.201 421.5 190.201C411.016 190.201 401.728 195.323 396.002 203.202C393.097 201.916 389.882 201.201 386.5 201.201C373.521 201.201 363 211.723 363 224.701C363 237.68 373.521 248.201 386.5 248.201C390.281 248.201 393.853 247.308 397.017 245.722L399.445 253.33ZM392.455 233.912C390.74 235.023 388.695 235.668 386.5 235.668C380.443 235.668 375.533 230.758 375.533 224.701C375.533 218.645 380.443 213.735 386.5 213.735C388.027 213.735 389.481 214.047 390.802 214.61C390.278 216.89 390 219.263 390 221.701C390 226.031 390.874 230.157 392.455 233.912Z"/>
</mask>
<path fill-rule="evenodd" clip-rule="evenodd" d="M399.445 253.33C400.371 256.231 403.068 258.201 406.114 258.201H436.565C439.48 258.201 442.09 256.394 443.116 253.666L450.134 235.008C450.209 234.811 450.274 234.613 450.329 234.415C452.047 230.527 453 226.225 453 221.701C453 204.304 438.897 190.201 421.5 190.201C411.016 190.201 401.728 195.323 396.002 203.202C393.097 201.916 389.882 201.201 386.5 201.201C373.521 201.201 363 211.723 363 224.701C363 237.68 373.521 248.201 386.5 248.201C390.281 248.201 393.853 247.308 397.017 245.722L399.445 253.33ZM392.455 233.912C390.74 235.023 388.695 235.668 386.5 235.668C380.443 235.668 375.533 230.758 375.533 224.701C375.533 218.645 380.443 213.735 386.5 213.735C388.027 213.735 389.481 214.047 390.802 214.61C390.278 216.89 390 219.263 390 221.701C390 226.031 390.874 230.157 392.455 233.912Z" fill="white"/>
<path d="M399.445 253.33L397.54 253.938L397.54 253.938L399.445 253.33ZM443.116 253.666L441.245 252.962L441.245 252.962L443.116 253.666ZM450.134 235.008L448.263 234.304L448.263 234.304L450.134 235.008ZM450.329 234.415L448.404 233.873L448.443 233.737L448.5 233.607L450.329 234.415ZM396.002 203.202L397.62 204.377L396.67 205.684L395.193 205.031L396.002 203.202ZM397.017 245.722L396.121 243.934L398.212 242.886L398.923 245.114L397.017 245.722ZM392.455 233.912L394.298 233.136L394.948 234.68L393.542 235.591L392.455 233.912ZM390.802 214.61L391.587 212.771L393.126 213.428L392.751 215.059L390.802 214.61ZM406.114 260.201C402.198 260.201 398.731 257.669 397.54 253.938L401.351 252.722C402.012 254.794 403.938 256.201 406.114 256.201V260.201ZM436.565 260.201H406.114V256.201H436.565V260.201ZM444.988 254.37C443.669 257.878 440.313 260.201 436.565 260.201V256.201C438.647 256.201 440.511 254.911 441.245 252.962L444.988 254.37ZM452.006 235.712L444.988 254.37L441.245 252.962L448.263 234.304L452.006 235.712ZM452.254 234.958C452.183 235.21 452.101 235.462 452.006 235.712L448.263 234.304C448.317 234.159 448.364 234.015 448.404 233.873L452.254 234.958ZM455 221.701C455 226.509 453.987 231.085 452.159 235.223L448.5 233.607C450.107 229.968 451 225.942 451 221.701H455ZM421.5 188.201C440.002 188.201 455 203.2 455 221.701H451C451 205.409 437.793 192.201 421.5 192.201V188.201ZM394.385 202.026C400.47 193.652 410.349 188.201 421.5 188.201V192.201C411.683 192.201 402.986 196.995 397.62 204.377L394.385 202.026ZM386.5 199.201C390.166 199.201 393.656 199.976 396.812 201.373L395.193 205.031C392.537 203.855 389.598 203.201 386.5 203.201V199.201ZM361 224.701C361 210.618 372.417 199.201 386.5 199.201V203.201C374.626 203.201 365 212.827 365 224.701H361ZM386.5 250.201C372.417 250.201 361 238.784 361 224.701H365C365 236.575 374.626 246.201 386.5 246.201V250.201ZM397.914 247.51C394.477 249.233 390.599 250.201 386.5 250.201V246.201C389.963 246.201 393.229 245.384 396.121 243.934L397.914 247.51ZM397.54 253.938L395.112 246.33L398.923 245.114L401.351 252.722L397.54 253.938ZM393.542 235.591C391.513 236.905 389.093 237.668 386.5 237.668V233.668C388.298 233.668 389.967 233.141 391.367 232.233L393.542 235.591ZM386.5 237.668C379.339 237.668 373.533 231.863 373.533 224.701H377.533C377.533 229.653 381.548 233.668 386.5 233.668V237.668ZM373.533 224.701C373.533 217.54 379.339 211.735 386.5 211.735V215.735C381.548 215.735 377.533 219.749 377.533 224.701H373.533ZM386.5 211.735C388.302 211.735 390.022 212.103 391.587 212.771L390.017 216.45C388.939 215.99 387.752 215.735 386.5 215.735V211.735ZM388 221.701C388 219.111 388.295 216.587 388.853 214.162L392.751 215.059C392.26 217.192 392 219.415 392 221.701H388ZM390.611 234.688C388.929 230.692 388 226.302 388 221.701H392C392 225.76 392.819 229.622 394.298 233.136L390.611 234.688Z" fill="black" mask="url(#path-55-inside-4)"/>
<rect x="0.5" y="-0.5" width="33" height="5" rx="2.5" transform="matrix(1 0 0 -1 404 253.403)" fill="black" fill-opacity="0.11" stroke="black"/>
<circle r="10.5" transform="matrix(1 0 0 -1 421.5 223.701)" fill="#00704A"/>
<path fill-rule="evenodd" clip-rule="evenodd" d="M337 215.908C337 209.39 342.387 204.161 348.902 204.355C352.438 204.461 355.73 206.179 357.838 209.019L370.045 225.464C373.538 230.169 373.976 235.753 372.226 240.498L381.467 240.211C388.248 240.001 393.932 245.334 394.164 252.123C394.175 252.447 393.922 252.717 393.599 252.727L354.284 253.947C352.047 254.017 350.104 252.603 349.399 250.593C342.296 248.959 337 242.598 337 235V215.908Z" fill="white"/>
<path d="M348.902 204.355L348.932 203.356L348.902 204.355ZM357.838 209.019L357.035 209.615L357.838 209.019ZM370.045 225.464L370.847 224.868L370.847 224.868L370.045 225.464ZM372.226 240.498L371.287 240.152L370.774 241.544L372.257 241.498L372.226 240.498ZM381.467 240.211L381.436 239.212L381.436 239.212L381.467 240.211ZM394.164 252.123L395.163 252.089L395.163 252.089L394.164 252.123ZM393.599 252.727L393.63 253.726L393.63 253.726L393.599 252.727ZM354.284 253.947L354.253 252.948L354.253 252.948L354.284 253.947ZM349.399 250.593L350.342 250.262L350.16 249.742L349.623 249.619L349.399 250.593ZM348.932 203.356C341.853 203.144 336 208.826 336 215.908H338C338 209.953 342.921 205.177 348.872 205.355L348.932 203.356ZM358.641 208.423C356.35 205.337 352.773 203.47 348.932 203.356L348.872 205.355C352.102 205.451 355.109 207.021 357.035 209.615L358.641 208.423ZM370.847 224.868L358.641 208.423L357.035 209.615L369.242 226.06L370.847 224.868ZM373.164 240.844C375.023 235.806 374.556 229.864 370.847 224.868L369.242 226.06C372.519 230.475 372.93 235.701 371.287 240.152L373.164 240.844ZM381.436 239.212L372.195 239.499L372.257 241.498L381.498 241.211L381.436 239.212ZM395.163 252.089C394.913 244.75 388.769 238.984 381.436 239.212L381.498 241.211C387.727 241.017 392.952 245.917 393.165 252.157L395.163 252.089ZM393.63 253.726C394.508 253.699 395.193 252.964 395.163 252.089L393.165 252.157C393.157 251.929 393.337 251.735 393.568 251.727L393.63 253.726ZM354.315 254.947L393.63 253.726L393.568 251.727L354.253 252.948L354.315 254.947ZM348.455 250.924C349.3 253.333 351.629 255.03 354.315 254.947L354.253 252.948C352.466 253.003 350.907 251.874 350.342 250.262L348.455 250.924ZM336 235C336 243.074 341.628 249.832 349.174 251.568L349.623 249.619C342.964 248.087 338 242.122 338 235H336ZM336 215.908V235H338V215.908H336Z" fill="black"/>
<path d="M390.594 252.067C387.985 249.042 383.485 248.414 379.856 252.552" stroke="black"/>
<mask id="path-62-inside-5" fill="white">
<path fill-rule="evenodd" clip-rule="evenodd" d="M371.464 209C371.441 205.134 368.288 202.037 364.422 202.084L349 202.268C345.134 202.314 342.019 205.486 342.043 209.352C342.049 210.304 342.244 211.209 342.593 212.032C341.615 213.25 341.033 214.798 341.043 216.478C341.055 218.421 341.857 220.17 343.144 221.423C341.837 222.711 341.031 224.504 341.043 226.478C341.056 228.614 342.024 230.514 343.54 231.78C341.955 233.05 340.958 235.017 341.001 237.214C341.075 240.998 344.203 244.033 347.987 243.995L376.279 243.706C380.063 243.668 383.071 240.569 382.997 236.786C382.945 234.146 381.408 231.871 379.197 230.749C380.331 229.49 381.017 227.822 381.006 226C380.994 224.057 380.191 222.308 378.905 221.055C380.211 219.767 381.017 217.974 381.005 216C380.982 212.134 377.829 209.037 373.963 209.084L371.464 209.114C371.464 209.076 371.464 209.038 371.464 209Z"/>
</mask>
<path fill-rule="evenodd" clip-rule="evenodd" d="M371.464 209C371.441 205.134 368.288 202.037 364.422 202.084L349 202.268C345.134 202.314 342.019 205.486 342.043 209.352C342.049 210.304 342.244 211.209 342.593 212.032C341.615 213.25 341.033 214.798 341.043 216.478C341.055 218.421 341.857 220.17 343.144 221.423C341.837 222.711 341.031 224.504 341.043 226.478C341.056 228.614 342.024 230.514 343.54 231.78C341.955 233.05 340.958 235.017 341.001 237.214C341.075 240.998 344.203 244.033 347.987 243.995L376.279 243.706C380.063 243.668 383.071 240.569 382.997 236.786C382.945 234.146 381.408 231.871 379.197 230.749C380.331 229.49 381.017 227.822 381.006 226C380.994 224.057 380.191 222.308 378.905 221.055C380.211 219.767 381.017 217.974 381.005 216C380.982 212.134 377.829 209.037 373.963 209.084L371.464 209.114C371.464 209.076 371.464 209.038 371.464 209Z" fill="white"/>
<path d="M364.422 202.084L364.398 200.084L364.422 202.084ZM371.464 209L369.464 209.012L369.464 209.012L371.464 209ZM349 202.268L349.024 204.268L349 202.268ZM342.043 209.352L340.043 209.364L340.043 209.364L342.043 209.352ZM342.593 212.032L344.152 213.284L344.902 212.352L344.435 211.251L342.593 212.032ZM341.043 216.478L339.043 216.49L341.043 216.478ZM343.144 221.423L344.548 222.847L346.001 221.414L344.539 219.99L343.144 221.423ZM341.043 226.478L339.043 226.49L341.043 226.478ZM343.54 231.78L344.79 233.341L346.698 231.812L344.822 230.245L343.54 231.78ZM341.001 237.214L339.002 237.253L341.001 237.214ZM347.987 243.995L348.007 245.995L348.007 245.995L347.987 243.995ZM376.279 243.706L376.3 245.706L376.3 245.706L376.279 243.706ZM382.997 236.786L384.997 236.747L384.997 236.747L382.997 236.786ZM379.197 230.749L377.711 229.411L375.965 231.351L378.292 232.532L379.197 230.749ZM381.006 226L383.006 225.988L383.006 225.988L381.006 226ZM378.905 221.055L377.501 219.631L376.048 221.064L377.509 222.488L378.905 221.055ZM381.005 216L383.005 215.988L383.005 215.988L381.005 216ZM373.963 209.084L373.987 211.084L373.987 211.084L373.963 209.084ZM371.464 209.114L369.464 209.094L369.444 211.138L371.488 211.114L371.464 209.114ZM364.446 204.083C367.202 204.051 369.447 206.255 369.464 209.012L373.464 208.988C373.434 204.012 369.373 200.024 364.398 200.084L364.446 204.083ZM349.024 204.268L364.446 204.083L364.398 200.084L348.976 200.268L349.024 204.268ZM344.043 209.34C344.026 206.574 346.258 204.301 349.024 204.268L348.976 200.268C344.01 200.328 340.013 204.398 340.043 209.364L344.043 209.34ZM344.435 211.251C344.187 210.667 344.047 210.023 344.043 209.34L340.043 209.364C340.05 210.584 340.301 211.75 340.752 212.813L344.435 211.251ZM341.034 210.779C339.779 212.341 339.03 214.333 339.043 216.49L343.043 216.466C343.035 215.264 343.45 214.158 344.152 213.284L341.034 210.779ZM339.043 216.49C339.058 218.989 340.093 221.243 341.748 222.856L344.539 219.99C343.622 219.097 343.051 217.854 343.043 216.466L339.043 216.49ZM341.739 219.999C340.066 221.649 339.028 223.953 339.043 226.49L343.043 226.466C343.034 225.055 343.608 223.773 344.548 222.847L341.739 219.999ZM339.043 226.49C339.06 229.237 340.308 231.687 342.258 233.315L344.822 230.245C343.74 229.342 343.052 227.99 343.043 226.466L339.043 226.49ZM342.289 230.22C340.238 231.863 338.946 234.412 339.002 237.253L343.001 237.175C342.971 235.621 343.672 234.237 344.79 233.341L342.289 230.22ZM339.002 237.253C339.097 242.134 343.126 246.045 348.007 245.995L347.966 241.995C345.279 242.022 343.053 239.862 343.001 237.175L339.002 237.253ZM348.007 245.995L376.3 245.706L376.259 241.706L347.966 241.995L348.007 245.995ZM376.3 245.706C381.195 245.656 385.092 241.642 384.997 236.747L380.997 236.825C381.049 239.497 378.931 241.679 376.259 241.706L376.3 245.706ZM384.997 236.747C384.93 233.336 382.943 230.407 380.103 228.965L378.292 232.532C379.872 233.334 380.961 234.957 380.997 236.825L384.997 236.747ZM380.684 232.087C382.136 230.473 383.02 228.329 383.006 225.988L379.006 226.012C379.014 227.315 378.525 228.507 377.711 229.411L380.684 232.087ZM383.006 225.988C382.99 223.489 381.956 221.235 380.3 219.622L377.509 222.488C378.427 223.381 378.997 224.624 379.006 226.012L383.006 225.988ZM380.309 222.479C381.983 220.829 383.021 218.525 383.005 215.988L379.005 216.012C379.014 217.423 378.44 218.704 377.501 219.631L380.309 222.479ZM383.005 215.988C382.975 211.013 378.914 207.024 373.939 207.084L373.987 211.084C376.744 211.051 378.989 213.255 379.005 216.012L383.005 215.988ZM373.939 207.084L371.44 207.114L371.488 211.114L373.987 211.084L373.939 207.084ZM369.464 209.012C369.464 209.039 369.464 209.067 369.464 209.094L373.464 209.133C373.464 209.085 373.464 209.036 373.464 208.988L369.464 209.012Z" fill="black" mask="url(#path-62-inside-5)"/>
<path fill-rule="evenodd" clip-rule="evenodd" d="M425.431 267.943L422 262L418.569 267.943C418.208 268.544 418 269.248 418 270C418 272.209 419.791 274 422 274C424.209 274 426 272.209 426 270C426 269.248 425.792 268.544 425.431 267.943Z" fill="black"/>
<mask id="path-65-inside-6" fill="white">
<path fill-rule="evenodd" clip-rule="evenodd" d="M207.013 83.2013H202.013C199.252 83.2013 197.013 85.4399 197.013 88.2013V95.2013C197.013 97.9627 199.252 100.201 202.013 100.201H207.013V83.2013Z"/>
</mask>
<path fill-rule="evenodd" clip-rule="evenodd" d="M207.013 83.2013H202.013C199.252 83.2013 197.013 85.4399 197.013 88.2013V95.2013C197.013 97.9627 199.252 100.201 202.013 100.201H207.013V83.2013Z" fill="white"/>
<path d="M207.013 83.2013H208.013V82.2013H207.013V83.2013ZM207.013 100.201V101.201H208.013V100.201H207.013ZM202.013 84.2013H207.013V82.2013H202.013V84.2013ZM198.013 88.2013C198.013 85.9922 199.804 84.2013 202.013 84.2013V82.2013C198.699 82.2013 196.013 84.8876 196.013 88.2013H198.013ZM198.013 95.2013V88.2013H196.013V95.2013H198.013ZM202.013 99.2013C199.804 99.2013 198.013 97.4104 198.013 95.2013H196.013C196.013 98.515 198.699 101.201 202.013 101.201V99.2013ZM207.013 99.2013H202.013V101.201H207.013V99.2013ZM208.013 100.201V83.2013H206.013V100.201H208.013Z" fill="black" mask="url(#path-65-inside-6)"/>
<path d="M229.7 49.2013H231.816C242.107 49.2013 250.882 56.6586 252.541 66.8148L257.852 99.3148C259.94 112.095 250.076 123.701 237.127 123.701H225.239C212.506 123.701 202.703 112.461 204.434 99.8457L208.895 67.3457C210.322 56.9487 219.205 49.2013 229.7 49.2013Z" fill="black" stroke="black" stroke-width="2"/>
<path fill-rule="evenodd" clip-rule="evenodd" d="M203.996 96.5797C204.107 96.8493 204.425 96.9704 204.671 96.8136C206.615 95.5727 207.452 93.0804 206.541 90.8736L206.047 89.6773C205.137 87.4705 202.786 86.2935 200.532 86.7853C200.247 86.8475 200.107 87.1575 200.219 87.4271V87.4271C200.319 87.6696 200.588 87.7911 200.846 87.7421C202.604 87.4078 204.413 88.3398 205.123 90.0588L205.617 91.2551C206.326 92.9741 205.7 94.9113 204.218 95.9143C204.001 96.0613 203.896 96.3372 203.996 96.5797V96.5797Z" fill="black"/>
<path fill-rule="evenodd" clip-rule="evenodd" d="M207.013 89.6359C207.013 89.4327 206.862 89.2615 206.66 89.2371V89.2371C205.073 89.0446 203.572 89.6414 202.55 90.7191C202.276 91.0089 202.477 91.4545 202.874 91.5026V91.5026C203.052 91.5242 203.227 91.4539 203.354 91.3274C204.162 90.5218 205.319 90.0818 206.539 90.2298V90.2298C206.791 90.2603 207.013 90.0637 207.013 89.81V89.6359Z" fill="black"/>
<mask id="path-70-inside-7" fill="white">
<path fill-rule="evenodd" clip-rule="evenodd" d="M256.013 83.2013H260.013C262.775 83.2013 265.013 85.4399 265.013 88.2013V95.2013C265.013 97.9627 262.775 100.201 260.013 100.201H256.013V83.2013Z"/>
</mask>
<path fill-rule="evenodd" clip-rule="evenodd" d="M256.013 83.2013H260.013C262.775 83.2013 265.013 85.4399 265.013 88.2013V95.2013C265.013 97.9627 262.775 100.201 260.013 100.201H256.013V83.2013Z" fill="white"/>
<path d="M256.013 83.2013H255.013V82.2013H256.013V83.2013ZM256.013 100.201V101.201H255.013V100.201H256.013ZM260.013 84.2013H256.013V82.2013H260.013V84.2013ZM264.013 88.2013C264.013 85.9922 262.222 84.2013 260.013 84.2013V82.2013C263.327 82.2013 266.013 84.8876 266.013 88.2013H264.013ZM264.013 95.2013V88.2013H266.013V95.2013H264.013ZM260.013 99.2013C262.222 99.2013 264.013 97.4104 264.013 95.2013H266.013C266.013 98.515 263.327 101.201 260.013 101.201V99.2013ZM256.013 99.2013H260.013V101.201H256.013V99.2013ZM255.013 100.201V83.2013H257.013V100.201H255.013Z" fill="black" mask="url(#path-70-inside-7)"/>
<path fill-rule="evenodd" clip-rule="evenodd" d="M258.405 96.5797C258.294 96.8493 257.976 96.9704 257.731 96.8136C255.786 95.5727 254.95 93.0804 255.86 90.8736L256.354 89.6773C257.265 87.4705 259.615 86.2935 261.869 86.7853C262.154 86.8475 262.294 87.1575 262.183 87.4271V87.4271C262.083 87.6696 261.814 87.7911 261.556 87.7421C259.798 87.4078 257.988 88.3398 257.278 90.0588L256.785 91.2551C256.075 92.9741 256.701 94.9113 258.183 95.9143C258.4 96.0613 258.505 96.3372 258.405 96.5797V96.5797Z" fill="black"/>
<path fill-rule="evenodd" clip-rule="evenodd" d="M255.388 89.6359C255.388 89.4327 255.54 89.2615 255.742 89.2371V89.2371C257.329 89.0446 258.83 89.6414 259.851 90.7191C260.126 91.0089 259.924 91.4545 259.528 91.5026V91.5026C259.35 91.5242 259.174 91.4539 259.047 91.3274C258.239 90.5218 257.083 90.0818 255.862 90.2298V90.2298C255.61 90.2603 255.388 90.0637 255.388 89.81V89.6359Z" fill="black"/>
<path d="M233.513 134.201H233.492L233.471 134.202L224.604 134.577C211.42 135.134 200.995 123.537 202.949 110.487L208.696 72.0922C210.236 61.8096 219.068 54.2013 229.465 54.2013H232.173C242.313 54.2013 251.005 61.4475 252.83 71.4225L259.781 109.423C262.14 122.32 252.235 134.201 239.124 134.201H233.513Z" fill="white" stroke="black" stroke-width="2"/>
<path d="M207.016 77.2864H207.044H207.073H207.102H207.131H207.159H207.188H207.217H207.246H207.274H207.303H207.331H207.36H207.389H207.417H207.446H207.474H207.503H207.531H207.56H207.588H207.616H207.645H207.673H207.701H207.73H207.758H207.786H207.814H207.842H207.871H207.899H207.927H207.955H207.983H208.011H208.039H208.067H208.095H208.123H208.151H208.179H208.207H208.235H208.263H208.291H208.319H208.346H208.374H208.402H208.43H208.457H208.485H208.513H208.54H208.568H208.596H208.623H208.651H208.678H208.706H208.734H208.761H208.788H208.816H208.843H208.871H208.898H208.926H208.953H208.98H209.008H209.035H209.062H209.09H209.117H209.144H209.171H209.198H209.226H209.253H209.28H209.307H209.334H209.361H209.388H209.415H209.442H209.469H209.496H209.523H209.55H209.577H209.604H209.631H209.658H209.685H209.712H209.738H209.765H209.792H209.819H209.846H209.872H209.899H209.926H209.953H209.979H210.006H210.033H210.059H210.086H210.112H210.139H210.165H210.192H210.219H210.245H210.272H210.298H210.325H210.351H210.377H210.404H210.43H210.457H210.483H210.509H210.536H210.562H210.588H210.615H210.641H210.667H210.693H210.72H210.746H210.772H210.798H210.825H210.851H210.877H210.903H210.929H210.955H210.981H211.007H211.033H211.059H211.086H211.112H211.138H211.164H211.19H211.215H211.241H211.267H211.293H211.319H211.345H211.371H211.397H211.423H211.449H211.474H211.5H211.526H211.552H211.578H211.603H211.629H211.655H211.681H211.706H211.732H211.758H211.784H211.809H211.835H211.861H211.886H211.912H211.937H211.963H211.989H212.014H212.04H212.065H212.091H212.116H212.142H212.167H212.193H212.219H212.244H212.269H212.295H212.32H212.346H212.371H212.397H212.422H212.447H212.473H212.498H212.524H212.549H212.574H212.6H212.625H212.65H212.676H212.701H212.726H212.752H212.777H212.802H212.827H212.853H212.878H212.903H212.928H212.954H212.979H213.004H213.029H213.054H213.079H213.105H213.13H213.155H213.18H213.205H213.23H213.255H213.281H213.306H213.331H213.356H213.381H213.406H213.431H213.456H213.481H213.506H213.531H213.556H213.581H213.606H213.631H213.656H213.681H213.706H213.731H213.756H213.781H213.806H213.831H213.856H213.881H213.906H213.931H213.956H213.981H214.005H214.03H214.055H214.08H214.105H214.13H214.155H214.18H214.204H214.229H214.254H214.279H214.304H214.329H214.354H214.378H214.403H214.428H214.453H214.478H214.502H214.527H214.552H214.577H214.602H214.626H214.651H214.676H214.701H214.725H214.75H214.775H214.8H214.825H214.849H214.874H214.899H214.923H214.948H214.973H214.998H215.022H215.047H215.072H215.097H215.121H215.146H215.171H215.195H215.22H215.245H215.27H215.294H215.319H215.344H215.368H215.393H215.418H215.442H215.467H215.492H215.516H215.541H215.566H215.59H215.615H215.64H215.664H215.689H215.714H215.738H215.763H215.788H215.812H215.837H215.862H215.886H215.911H215.936H215.96H215.985H216.01H216.034H216.059H216.084H216.108H216.133H216.158H216.182H216.207H216.232H216.256H216.281H216.306H216.33H216.355H216.38H216.404H216.429H216.454H216.478H216.503H216.528H216.552H216.577H216.602H216.626H216.651H216.676H216.7H216.725H216.75H216.774H216.799H216.824H216.849H216.873H216.898H216.923H216.947H216.972H216.997H217.021H217.046H217.071H217.096H217.12H217.145H217.17H217.195H217.219H217.244H217.269H217.293H217.318H217.343H217.368H217.392H217.417H217.442H217.467H217.492H217.516H217.541H217.566H217.591H217.615H217.64H217.665H217.69H217.715H217.74H217.764H217.789H217.814H217.839H217.864H217.889H217.913H217.938H217.963H217.988H218.013H218.038H218.063H218.087H218.112H218.137H218.162H218.187H218.212H218.237H218.262H218.287H218.312H218.337H218.362H218.387H218.412H218.437H218.461H218.486H218.511H218.536H218.561H218.586H218.612H218.637H218.662H218.687H218.712H218.737H218.762H218.787H218.812H218.837H218.862H218.887H218.912H218.937H218.963H218.988H219.013H219.038H219.063H219.088H219.114H219.139H219.164H219.189H219.214H219.24H219.265H219.29H219.315H219.34H219.366H219.391H219.416H219.442H219.467H219.492H219.518H219.543H219.568H219.594H219.619H219.644H219.67H219.695H219.72H219.746H219.771H219.797H219.822H219.848H219.873H219.899H219.924H219.949H219.975H220.001H220.026H220.052H220.077H220.103H220.128H220.154H220.179C224.022 77.2864 227.137 80.4014 227.137 84.2438C227.137 88.0863 224.022 91.2013 220.18 91.2013H215.013C209.49 91.2013 205.013 86.7241 205.013 81.2013V79.2864C205.013 78.1828 205.91 77.2864 207.016 77.2864Z" fill="white" stroke="black" stroke-width="2"/>
<path d="M257.137 77.2864H241.971C238.128 77.2864 235.013 80.4013 235.013 84.2438C235.013 88.0863 238.128 91.2013 241.971 91.2013H247.137C252.66 91.2013 257.137 86.7241 257.137 81.2013V77.2864Z" fill="white" stroke="black" stroke-width="2"/>
<path fill-rule="evenodd" clip-rule="evenodd" d="M222.231 85.2013C221.132 83.9738 219.535 83.2013 217.758 83.2013C215.981 83.2013 214.385 83.9738 213.286 85.2013H212.013C213.278 83.3878 215.38 82.2013 217.758 82.2013C220.137 82.2013 222.239 83.3878 223.504 85.2013H222.231Z" fill="black"/>
<path fill-rule="evenodd" clip-rule="evenodd" d="M222.575 71.5462C222.32 71.7046 222.143 71.9616 222.068 72.2524C221.466 74.5713 220.006 76.6715 217.81 78.0346C215.613 79.3977 213.083 79.7738 210.738 79.2843C210.444 79.2229 210.135 79.2667 209.88 79.4251V79.4251C209.126 79.8932 209.224 80.9898 210.089 81.1893C212.987 81.8578 216.138 81.4257 218.864 79.7339C221.59 78.0421 223.376 75.4096 224.063 72.5168C224.268 71.6531 223.329 71.0781 222.575 71.5462V71.5462Z" fill="black"/>
<path fill-rule="evenodd" clip-rule="evenodd" d="M252.51 78.7619C252.231 78.6513 251.919 78.663 251.641 78.7756C249.42 79.6738 246.863 79.7528 244.46 78.8013C242.056 77.8497 240.247 76.0421 239.242 73.8669C239.116 73.5941 238.897 73.3725 238.618 73.2619V73.2619C237.793 72.9352 236.971 73.6678 237.326 74.4813C238.516 77.2062 240.741 79.4798 243.723 80.6608C246.706 81.8418 249.885 81.7074 252.617 80.5353C253.433 80.1854 253.335 79.0887 252.51 78.7619V78.7619Z" fill="black"/>
<mask id="path-80-outside-8" maskUnits="userSpaceOnUse" x="199.725" y="94.2013" width="63" height="47" fill="black">
<rect fill="white" x="199.725" y="94.2013" width="63" height="47"/>
<path fill-rule="evenodd" clip-rule="evenodd" d="M227.814 96.8368C214.858 93.6614 202.098 102.747 200.826 116.026C199.594 128.899 209.713 140.06 222.645 140.06H240.067C253.04 140.06 263.06 128.66 261.395 115.794C259.926 104.439 249.816 96.2257 238.4 97.1135L234.718 97.3998C232.402 97.58 230.071 97.3899 227.814 96.8368ZM244.628 106.531C243.667 106.531 242.739 106.675 241.866 106.942C234.555 102.979 225.408 103.419 218.506 108.01C218.037 107.942 217.556 107.907 217.067 107.907C211.859 107.907 207.637 111.895 207.637 116.813C207.637 121.732 211.859 125.72 217.067 125.72C220.118 125.72 222.83 124.351 224.554 122.229C226.461 123.11 228.75 123.624 231.212 123.624C233.586 123.624 235.8 123.146 237.666 122.322C239.39 124.208 241.871 125.391 244.628 125.391C249.836 125.391 254.058 121.169 254.058 115.961C254.058 110.753 249.836 106.531 244.628 106.531Z"/>
</mask>
<path fill-rule="evenodd" clip-rule="evenodd" d="M227.814 96.8368C214.858 93.6614 202.098 102.747 200.826 116.026C199.594 128.899 209.713 140.06 222.645 140.06H240.067C253.04 140.06 263.06 128.66 261.395 115.794C259.926 104.439 249.816 96.2257 238.4 97.1135L234.718 97.3998C232.402 97.58 230.071 97.3899 227.814 96.8368ZM244.628 106.531C243.667 106.531 242.739 106.675 241.866 106.942C234.555 102.979 225.408 103.419 218.506 108.01C218.037 107.942 217.556 107.907 217.067 107.907C211.859 107.907 207.637 111.895 207.637 116.813C207.637 121.732 211.859 125.72 217.067 125.72C220.118 125.72 222.83 124.351 224.554 122.229C226.461 123.11 228.75 123.624 231.212 123.624C233.586 123.624 235.8 123.146 237.666 122.322C239.39 124.208 241.871 125.391 244.628 125.391C249.836 125.391 254.058 121.169 254.058 115.961C254.058 110.753 249.836 106.531 244.628 106.531Z" fill="black"/>
<path d="M200.826 116.026L199.831 115.931L199.831 115.931L200.826 116.026ZM227.814 96.8368L227.576 97.8081L227.576 97.8081L227.814 96.8368ZM261.395 115.794L262.387 115.666L261.395 115.794ZM238.4 97.1135L238.478 98.1105L238.478 98.1105L238.4 97.1135ZM234.718 97.3998L234.641 96.4028L234.641 96.4028L234.718 97.3998ZM241.866 106.942L241.389 107.821L241.758 108.02L242.158 107.898L241.866 106.942ZM218.506 108.01L218.363 109L218.741 109.055L219.06 108.843L218.506 108.01ZM224.554 122.229L224.973 121.321L224.267 120.995L223.777 121.599L224.554 122.229ZM237.666 122.322L238.404 121.647L237.919 121.116L237.261 121.407L237.666 122.322ZM201.822 116.121C203.035 103.447 215.214 94.7782 227.576 97.8081L228.053 95.8656C214.502 92.5447 201.16 102.046 199.831 115.931L201.822 116.121ZM222.645 139.06C210.304 139.06 200.645 128.408 201.822 116.121L199.831 115.931C198.542 129.389 209.122 141.06 222.645 141.06V139.06ZM240.067 139.06H222.645V141.06H240.067V139.06ZM260.403 115.923C261.991 128.19 252.437 139.06 240.067 139.06V141.06C253.644 141.06 264.129 129.13 262.387 115.666L260.403 115.923ZM238.478 98.1105C249.363 97.264 259.002 105.095 260.403 115.923L262.387 115.666C260.849 103.782 250.269 95.1874 238.323 96.1165L238.478 98.1105ZM234.796 98.3968L238.478 98.1105L238.323 96.1165L234.641 96.4028L234.796 98.3968ZM227.576 97.8081C229.936 98.3865 232.373 98.5852 234.796 98.3968L234.641 96.4028C232.43 96.5748 230.206 96.3934 228.053 95.8656L227.576 97.8081ZM242.158 107.898C242.938 107.66 243.767 107.531 244.628 107.531V105.531C243.566 105.531 242.541 105.69 241.573 105.985L242.158 107.898ZM219.06 108.843C225.655 104.456 234.405 104.036 241.389 107.821L242.342 106.063C234.704 101.922 225.161 102.382 217.952 107.178L219.06 108.843ZM217.067 108.907C217.508 108.907 217.941 108.939 218.363 109L218.649 107.021C218.132 106.946 217.604 106.907 217.067 106.907V108.907ZM208.637 116.813C208.637 112.5 212.356 108.907 217.067 108.907V106.907C211.361 106.907 206.637 111.289 206.637 116.813H208.637ZM217.067 124.72C212.356 124.72 208.637 121.127 208.637 116.813H206.637C206.637 122.337 211.361 126.72 217.067 126.72V124.72ZM223.777 121.599C222.243 123.487 219.816 124.72 217.067 124.72V126.72C220.419 126.72 223.417 125.215 225.33 122.86L223.777 121.599ZM231.212 122.624C228.886 122.624 226.741 122.138 224.973 121.321L224.134 123.137C226.181 124.083 228.614 124.624 231.212 124.624V122.624ZM237.261 121.407C235.53 122.172 233.455 122.624 231.212 122.624V124.624C233.718 124.624 236.07 124.12 238.07 123.236L237.261 121.407ZM244.628 124.391C242.163 124.391 239.947 123.335 238.404 121.647L236.928 122.996C238.833 125.081 241.578 126.391 244.628 126.391V124.391ZM253.058 115.961C253.058 120.617 249.283 124.391 244.628 124.391V126.391C250.388 126.391 255.058 121.721 255.058 115.961H253.058ZM244.628 107.531C249.283 107.531 253.058 111.305 253.058 115.961H255.058C255.058 110.201 250.388 105.531 244.628 105.531V107.531Z" fill="white" mask="url(#path-80-outside-8)"/>
<path fill-rule="evenodd" clip-rule="evenodd" d="M227.967 94.9493C215.601 91.9187 203.423 100.59 202.209 113.263C201.033 125.549 210.691 136.201 223.033 136.201H239.661C252.043 136.201 261.605 125.321 260.016 113.042C258.614 102.204 248.965 94.3661 238.07 95.2134L234.556 95.4867C232.345 95.6586 230.121 95.4772 227.967 94.9493ZM244.013 104.201C243.096 104.201 242.211 104.338 241.377 104.593C234.4 100.811 225.67 101.231 219.083 105.613C218.635 105.549 218.176 105.515 217.709 105.515C212.739 105.515 208.709 109.321 208.709 114.015C208.709 118.709 212.739 122.515 217.709 122.515C220.621 122.515 223.21 121.209 224.855 119.184C226.675 120.025 228.86 120.515 231.209 120.515C233.475 120.515 235.588 120.059 237.369 119.272C239.014 121.072 241.382 122.201 244.013 122.201C248.984 122.201 253.013 118.172 253.013 113.201C253.013 108.231 248.984 104.201 244.013 104.201Z" fill="black"/>
<path fill-rule="evenodd" clip-rule="evenodd" d="M248.231 85.2013C247.132 83.9738 245.535 83.2013 243.758 83.2013C241.981 83.2013 240.385 83.9738 239.286 85.2013H238.013C239.278 83.3878 241.38 82.2013 243.758 82.2013C246.137 82.2013 248.239 83.3878 249.504 85.2013H248.231Z" fill="black"/>
<path d="M203.013 77.3263C203.013 76.774 203.461 76.3263 204.013 76.3263H206.013C206.565 76.3263 207.013 76.774 207.013 77.3263V77.3263C207.013 77.8786 206.565 78.3263 206.013 78.3263H204.013C203.461 78.3263 203.013 77.8786 203.013 77.3263V77.3263Z" fill="black"/>
<line x1="204.263" y1="77.2013" x2="204.763" y2="77.2013" stroke="white" stroke-width="0.5" stroke-linecap="round" stroke-linejoin="round"/>
<path d="M259.013 77.3263C259.013 76.774 258.565 76.3263 258.013 76.3263H256.013C255.461 76.3263 255.013 76.774 255.013 77.3263V77.3263C255.013 77.8786 255.461 78.3263 256.013 78.3263H258.013C258.565 78.3263 259.013 77.8786 259.013 77.3263V77.3263Z" fill="black"/>
<line x1="0.25" y1="-0.25" x2="0.75" y2="-0.25" transform="matrix(-1 0 0 1 258.013 77.4513)" stroke="white" stroke-width="0.5" stroke-linecap="round" stroke-linejoin="round"/>
<path d="M233.208 83.2691L240.154 96.0042C241.063 97.6701 239.857 99.7013 237.96 99.7013H231.013H224.067C222.169 99.7013 220.963 97.6701 221.872 96.0042L228.818 83.2691C229.766 81.532 232.26 81.532 233.208 83.2691Z" fill="white" stroke="black"/>
<path fill-rule="evenodd" clip-rule="evenodd" d="M233.986 84.2013C233.757 83.2177 232.705 82.2013 231.013 82.2013C229.321 82.2013 228.269 83.2177 228.04 84.2013H226.013C226.244 81.9587 228.394 80.2013 231.013 80.2013C233.632 80.2013 235.783 81.9587 236.013 84.2013H233.986Z" fill="black"/>
<path d="M225.513 98.7013C225.513 99.2536 225.065 99.7013 224.513 99.7013C223.961 99.7013 223.513 99.2536 223.513 98.7013C223.513 98.149 223.961 97.7013 224.513 97.7013C225.065 97.7013 225.513 98.149 225.513 98.7013Z" stroke="black"/>
<circle cx="237.513" cy="98.7013" r="1" stroke="black"/>
<ellipse cx="231.013" cy="53.7013" rx="12" ry="4.5" fill="black"/>
<path d="M214.806 114.143C220.733 99.2384 241.467 98.2831 248.739 112.579L250.196 115.442L214.806 114.143V114.143Z" fill="white"/>
<path fill-rule="evenodd" clip-rule="evenodd" d="M214.806 114.143C215.079 113.457 215.383 112.801 215.715 112.175C222.612 99.1828 241.802 98.9407 248.739 112.579L250.196 115.442L214.806 114.143ZM246.871 113.319L217.97 112.258C224.471 101.575 240.767 101.622 246.871 113.319Z" fill="black"/>
<path fill-rule="evenodd" clip-rule="evenodd" d="M242.224 107.178L242.199 114.178L241.199 114.175L241.224 107.175L242.224 107.178Z" fill="black"/>
<path fill-rule="evenodd" clip-rule="evenodd" d="M236.237 103.657L236.199 114.157L235.199 114.153L235.237 103.654L236.237 103.657Z" fill="black"/>
<path fill-rule="evenodd" clip-rule="evenodd" d="M230.235 104.136L230.203 113.136L229.203 113.132L229.235 104.132L230.235 104.136Z" fill="black"/>
<path fill-rule="evenodd" clip-rule="evenodd" d="M224.232 105.114L224.2 114.114L223.2 114.111L223.232 105.111L224.232 105.114Z" fill="black"/>
<mask id="path-99-outside-9" maskUnits="userSpaceOnUse" x="200" y="101.155" width="62" height="19" fill="black">
<rect fill="white" x="200" y="101.155" width="62" height="19"/>
<path fill-rule="evenodd" clip-rule="evenodd" d="M260.768 119.201C261.124 117.133 261.18 114.973 260.896 112.772C260.482 109.576 259.384 106.629 257.766 104.062L257.574 105.709C258.759 107.883 259.568 110.306 259.904 112.901C260.177 115.011 260.121 117.08 259.777 119.06H256.017L256 119.201H260.768ZM205.559 103.437C203.68 106.221 202.443 109.509 202.097 113.122C201.902 115.16 202.005 117.153 202.369 119.06H209.465L209.5 119.201H201.378C201.003 117.216 200.899 115.143 201.102 113.027C201.495 108.923 202.985 105.22 205.238 102.155L205.559 103.437Z"/>
</mask>
<path fill-rule="evenodd" clip-rule="evenodd" d="M260.768 119.201C261.124 117.133 261.18 114.973 260.896 112.772C260.482 109.576 259.384 106.629 257.766 104.062L257.574 105.709C258.759 107.883 259.568 110.306 259.904 112.901C260.177 115.011 260.121 117.08 259.777 119.06H256.017L256 119.201H260.768ZM205.559 103.437C203.68 106.221 202.443 109.509 202.097 113.122C201.902 115.16 202.005 117.153 202.369 119.06H209.465L209.5 119.201H201.378C201.003 117.216 200.899 115.143 201.102 113.027C201.495 108.923 202.985 105.22 205.238 102.155L205.559 103.437Z" fill="black"/>
<path d="M260.896 112.772L261.144 112.74L261.144 112.74L260.896 112.772ZM260.768 119.201V119.451H260.978L261.014 119.244L260.768 119.201ZM257.766 104.062L257.978 103.929L257.6 103.33L257.518 104.033L257.766 104.062ZM257.574 105.709L257.326 105.68L257.317 105.759L257.355 105.829L257.574 105.709ZM259.904 112.901L259.656 112.933L259.656 112.933L259.904 112.901ZM259.777 119.06V119.31H259.988L260.024 119.103L259.777 119.06ZM256.017 119.06V118.81H255.794L255.768 119.031L256.017 119.06ZM256 119.201L255.752 119.172L255.719 119.451H256V119.201ZM202.097 113.122L202.346 113.146L202.346 113.146L202.097 113.122ZM205.559 103.437L205.766 103.577L205.828 103.484L205.801 103.376L205.559 103.437ZM202.369 119.06L202.123 119.107L202.162 119.31H202.369V119.06ZM209.465 119.06L209.707 118.999L209.66 118.81H209.465V119.06ZM209.5 119.201V119.451H209.82L209.743 119.141L209.5 119.201ZM201.378 119.201L201.132 119.248L201.171 119.451H201.378V119.201ZM201.102 113.027L201.351 113.05L201.351 113.05L201.102 113.027ZM205.238 102.155L205.481 102.095L205.352 101.579L205.037 102.007L205.238 102.155ZM260.648 112.805C260.929 114.98 260.873 117.115 260.521 119.159L261.014 119.244C261.374 117.151 261.432 114.966 261.144 112.74L260.648 112.805ZM257.555 104.196C259.154 106.732 260.239 109.645 260.648 112.805L261.144 112.74C260.725 109.507 259.615 106.525 257.978 103.929L257.555 104.196ZM257.518 104.033L257.326 105.68L257.822 105.738L258.015 104.091L257.518 104.033ZM257.355 105.829C258.525 107.975 259.324 110.369 259.656 112.933L260.152 112.869C259.812 110.242 258.993 107.79 257.794 105.59L257.355 105.829ZM259.656 112.933C259.926 115.018 259.87 117.062 259.531 119.017L260.024 119.103C260.371 117.098 260.428 115.004 260.152 112.869L259.656 112.933ZM259.777 118.81H256.017V119.31H259.777V118.81ZM255.768 119.031L255.752 119.172L256.248 119.23L256.265 119.089L255.768 119.031ZM256 119.451H260.768V118.951H256V119.451ZM202.346 113.146C202.688 109.575 203.91 106.327 205.766 103.577L205.352 103.297C203.45 106.115 202.198 109.442 201.848 113.098L202.346 113.146ZM202.614 119.013C202.255 117.129 202.153 115.16 202.346 113.146L201.848 113.098C201.651 115.16 201.755 117.177 202.123 119.107L202.614 119.013ZM209.465 118.81H202.369V119.31H209.465V118.81ZM209.743 119.141L209.707 118.999L209.222 119.12L209.257 119.262L209.743 119.141ZM201.378 119.451H209.5V118.951H201.378V119.451ZM201.624 119.155C201.253 117.193 201.15 115.144 201.351 113.05L200.853 113.003C200.648 115.143 200.753 117.239 201.132 119.248L201.624 119.155ZM201.351 113.05C201.739 108.993 203.212 105.333 205.44 102.303L205.037 102.007C202.757 105.107 201.25 108.853 200.853 113.003L201.351 113.05ZM205.801 103.376L205.481 102.095L204.996 102.216L205.316 103.497L205.801 103.376Z" fill="black" mask="url(#path-99-outside-9)"/>
<path fill-rule="evenodd" clip-rule="evenodd" d="M232.87 43.2828C233.513 42.6617 234.586 43.1326 234.565 44.0265L234.478 47.5848L237.123 45.1799C237.763 44.5977 238.791 45.0487 238.796 45.9141L238.83 51.8531C238.834 52.5772 238.091 53.0655 237.428 52.7745L234.03 51.2833C233.755 51.5024 233.367 51.576 233.005 51.4171L229.735 49.9818L229.746 51.8531C229.75 52.5772 229.007 53.0655 228.344 52.7745L223.916 50.8309C223.253 50.5399 223.109 49.6625 223.645 49.1753L228.039 45.1799C228.679 44.5977 229.707 45.0487 229.712 45.9141L229.714 46.3302L232.87 43.2828Z" fill="black"/>
<mask id="path-102-inside-10" fill="white">
<path fill-rule="evenodd" clip-rule="evenodd" d="M243.821 65.3557L242.75 63.5L241.679 65.3557C241.565 65.5438 241.5 65.7643 241.5 65.9999C241.5 66.6902 242.06 67.2499 242.75 67.2499C243.44 67.2499 244 66.6902 244 65.9999C244 65.7643 243.935 65.5438 243.821 65.3557Z"/>
</mask>
<path fill-rule="evenodd" clip-rule="evenodd" d="M243.821 65.3557L242.75 63.5L241.679 65.3557C241.565 65.5438 241.5 65.7643 241.5 65.9999C241.5 66.6902 242.06 67.2499 242.75 67.2499C243.44 67.2499 244 66.6902 244 65.9999C244 65.7643 243.935 65.5438 243.821 65.3557Z" fill="#BCFBE8"/>
<path d="M242.75 63.5L243.183 63.25L242.75 62.5L242.317 63.25L242.75 63.5ZM243.821 65.3557L243.388 65.6058L243.393 65.6138L243.821 65.3557ZM241.679 65.3557L242.107 65.6138L242.112 65.6057L241.679 65.3557ZM242.317 63.75L243.388 65.6057L244.254 65.1057L243.183 63.25L242.317 63.75ZM242.112 65.6057L243.183 63.75L242.317 63.25L241.246 65.1057L242.112 65.6057ZM242 65.9999C242 65.8577 242.039 65.7262 242.107 65.6138L241.25 65.0977C241.091 65.3615 241 65.6708 241 65.9999H242ZM242.75 66.7499C242.336 66.7499 242 66.4141 242 65.9999H241C241 66.9664 241.783 67.7499 242.75 67.7499V66.7499ZM243.5 65.9999C243.5 66.4141 243.164 66.7499 242.75 66.7499V67.7499C243.716 67.7499 244.5 66.9664 244.5 65.9999H243.5ZM243.393 65.6138C243.461 65.7262 243.5 65.8577 243.5 65.9999H244.5C244.5 65.6708 244.409 65.3615 244.25 65.0977L243.393 65.6138Z" fill="black" mask="url(#path-102-inside-10)"/>
<mask id="path-104-inside-11" fill="white">
<path fill-rule="evenodd" clip-rule="evenodd" d="M241.322 62.8571L240.25 61L239.178 62.8571C239.065 63.045 239 63.2649 239 63.5C239 64.1903 239.56 64.7499 240.25 64.7499C240.94 64.7499 241.5 64.1903 241.5 63.5C241.5 63.2649 241.435 63.045 241.322 62.8571Z"/>
</mask>
<path fill-rule="evenodd" clip-rule="evenodd" d="M241.322 62.8571L240.25 61L239.178 62.8571C239.065 63.045 239 63.2649 239 63.5C239 64.1903 239.56 64.7499 240.25 64.7499C240.94 64.7499 241.5 64.1903 241.5 63.5C241.5 63.2649 241.435 63.045 241.322 62.8571Z" fill="#BCFAE7"/>
<path d="M240.25 61L240.683 60.75L240.25 60L239.817 60.75L240.25 61ZM241.322 62.8571L240.889 63.1072L240.894 63.1146L241.322 62.8571ZM239.178 62.8571L239.606 63.1147L239.611 63.1071L239.178 62.8571ZM239.817 61.25L240.889 63.1071L241.755 62.6071L240.683 60.75L239.817 61.25ZM239.611 63.1071L240.683 61.25L239.817 60.75L238.745 62.6071L239.611 63.1071ZM239.5 63.5C239.5 63.3581 239.539 63.2269 239.606 63.1146L238.749 62.5996C238.591 62.863 238.5 63.1717 238.5 63.5H239.5ZM240.25 64.2499C239.836 64.2499 239.5 63.9142 239.5 63.5H238.5C238.5 64.4664 239.283 65.2499 240.25 65.2499V64.2499ZM241 63.5C241 63.9142 240.664 64.2499 240.25 64.2499V65.2499C241.216 65.2499 242 64.4664 242 63.5H241ZM240.894 63.1146C240.961 63.2269 241 63.3581 241 63.5H242C242 63.1716 241.909 62.863 241.751 62.5996L240.894 63.1146Z" fill="black" mask="url(#path-104-inside-11)"/>
<path d="M344 248.5C349.5 251.5 351 251 357.5 242.5" stroke="black" stroke-width="2"/>
<path d="M354 231.125H378" stroke="black" stroke-width="2" stroke-linecap="round"/>
<path d="M354 221.125H377" stroke="black" stroke-width="2" stroke-linecap="round"/>
<path d="M354 210.125H371" stroke="black" stroke-width="2" stroke-linecap="round"/>
<defs>
<clipPath id="clip0">
<rect width="21" height="28" fill="white" transform="translate(276.013 235.201)"/>
</clipPath>
<clipPath id="clip1">
<rect width="44.1635" height="38.8639" fill="white" transform="translate(154.013 207.512) rotate(-24.4946)"/>
</clipPath>
</defs>
</svg>
