<svg width="252" height="235" viewBox="0 0 252 235" fill="none" xmlns="http://www.w3.org/2000/svg">
  <circle cx="110.5" cy="110.5" r="110.5" fill="#35EDB5" />
  <path
    d="M110.5 11L113.54 74.118C113.595 75.2603 115.215 75.4305 115.506 74.3246L131.603 13.218L121.454 75.5888C121.27 76.7176 122.819 77.2208 123.334 76.1996L151.784 19.7751L128.889 78.6729C128.475 79.7388 129.885 80.553 130.601 79.6612L170.16 30.3848L135.52 83.2353C134.893 84.1918 136.103 85.2815 136.989 84.558L185.929 44.5832L141.058 89.0768C140.246 89.8821 141.203 91.1995 142.22 90.676L198.402 61.75L145.26 95.942C144.298 96.5608 144.961 98.0484 146.064 97.7478L207.032 81.1348L147.943 103.531C146.874 103.936 147.212 105.529 148.354 105.464L211.444 101.89L148.99 111.512C147.859 111.686 147.859 113.314 148.99 113.488L211.444 123.11L148.354 119.536C147.212 119.471 146.874 121.064 147.943 121.469L207.032 143.865L146.064 127.252C144.961 126.952 144.298 128.439 145.26 129.058L198.402 163.25L142.22 134.324C141.203 133.801 140.246 135.118 141.058 135.923L185.929 180.417L136.989 140.442C136.103 139.719 134.893 140.808 135.52 141.765L170.16 194.615L130.601 145.339C129.885 144.447 128.475 145.261 128.889 146.327L151.784 205.225L123.334 148.8C122.819 147.779 121.27 148.282 121.454 149.411L131.603 211.782L115.506 150.675C115.215 149.569 113.595 149.74 113.54 150.882L110.5 214L107.46 150.882C107.405 149.74 105.785 149.569 105.494 150.675L89.397 211.782L99.546 149.411C99.7297 148.282 98.181 147.779 97.6661 148.8L69.2162 205.225L92.1111 146.327C92.5255 145.261 91.1152 144.447 90.3993 145.339L50.8398 194.615L85.4799 141.765C86.1069 140.808 84.8967 139.719 84.011 140.442L35.0708 180.417L79.9422 135.923C80.7543 135.118 79.7971 133.801 78.7803 134.324L22.5984 163.25L75.74 129.058C76.7018 128.439 76.0395 126.952 74.936 127.252L13.9678 143.865L73.057 121.469C74.1264 121.064 73.7878 119.471 72.646 119.536L9.55603 123.11L72.0104 113.488C73.1407 113.314 73.1407 111.686 72.0104 111.512L9.55603 101.89L72.646 105.464C73.7878 105.529 74.1264 103.936 73.057 103.531L13.9678 81.1348L74.936 97.7478C76.0395 98.0484 76.7018 96.5608 75.74 95.942L22.5984 61.75L78.7803 90.676C79.7971 91.1995 80.7543 89.8821 79.9422 89.0768L35.0708 44.5832L84.011 84.558C84.8967 85.2815 86.1068 84.1918 85.4799 83.2353L50.8398 30.3848L90.3993 79.6612C91.1152 80.553 92.5255 79.7388 92.1111 78.6729L69.2162 19.7751L97.6661 76.1996C98.181 77.2208 99.7297 76.7176 99.546 75.5888L89.397 13.218L105.494 74.3246C105.785 75.4305 107.405 75.2603 107.46 74.118L110.5 11Z"
    fill="#29BE91" />
  <circle cx="110.5" cy="110.5" r="42.5" fill="black" />
  <circle cx="81.73" cy="84.73" r="10.73" fill="#FAFAFA" />
  <g filter="url(#filter0_d)">
    <path d="M132.052 171.766L182.716 195.982L158.622 204.252L145.737 226.227L132.052 171.766Z" fill="#9B21B9" />
    <path
      d="M146.111 223.612L133.54 173.586L180.079 195.83L158.297 203.306L157.947 203.426L157.759 203.746L146.111 223.612Z"
      stroke="white" stroke-width="2" />
  </g>
  <g filter="url(#filter1_d)">
    <path d="M141.489 133.122L192.153 157.339L168.059 165.608L155.175 187.583L141.489 133.122Z" fill="#3A61E0" />
    <path
      d="M155.549 184.968L142.978 134.942L189.516 157.187L167.735 164.663L167.384 164.783L167.197 165.103L155.549 184.968Z"
      stroke="white" stroke-width="2" />
  </g>
  <g filter="url(#filter2_d)">
    <path d="M196.489 138.122L247.153 162.339L223.059 170.608L210.175 192.583L196.489 138.122Z" fill="#F9DF80" />
    <path
      d="M210.549 189.968L197.978 139.942L244.516 162.187L222.735 169.663L222.384 169.783L222.197 170.103L210.549 189.968Z"
      stroke="white" stroke-width="2" />
  </g>
  <defs>
    <filter id="filter0_d" x="109.562" y="156.644" width="77.1535" height="77.5832" filterUnits="userSpaceOnUse"
      color-interpolation-filters="sRGB">
      <feFlood flood-opacity="0" result="BackgroundImageFix" />
      <feColorMatrix in="SourceAlpha" type="matrix" values="0 0 0 0 0 0 0 0 0 0 0 0 0 0 0 0 0 0 127 0" />
      <feOffset dy="4" />
      <feGaussianBlur stdDeviation="2" />
      <feColorMatrix type="matrix" values="0 0 0 0 0 0 0 0 0 0 0 0 0 0 0 0 0 0 0.25 0" />
      <feBlend mode="normal" in2="BackgroundImageFix" result="effect1_dropShadow" />
      <feBlend mode="normal" in="SourceGraphic" in2="effect1_dropShadow" result="shape" />
    </filter>
    <filter id="filter1_d" x="119" y="118" width="77.1535" height="77.5832" filterUnits="userSpaceOnUse"
      color-interpolation-filters="sRGB">
      <feFlood flood-opacity="0" result="BackgroundImageFix" />
      <feColorMatrix in="SourceAlpha" type="matrix" values="0 0 0 0 0 0 0 0 0 0 0 0 0 0 0 0 0 0 127 0" />
      <feOffset dy="4" />
      <feGaussianBlur stdDeviation="2" />
      <feColorMatrix type="matrix" values="0 0 0 0 0 0 0 0 0 0 0 0 0 0 0 0 0 0 0.25 0" />
      <feBlend mode="normal" in2="BackgroundImageFix" result="effect1_dropShadow" />
      <feBlend mode="normal" in="SourceGraphic" in2="effect1_dropShadow" result="shape" />
    </filter>
    <filter id="filter2_d" x="174" y="123" width="77.1535" height="77.5832" filterUnits="userSpaceOnUse"
      color-interpolation-filters="sRGB">
      <feFlood flood-opacity="0" result="BackgroundImageFix" />
      <feColorMatrix in="SourceAlpha" type="matrix" values="0 0 0 0 0 0 0 0 0 0 0 0 0 0 0 0 0 0 127 0" />
      <feOffset dy="4" />
      <feGaussianBlur stdDeviation="2" />
      <feColorMatrix type="matrix" values="0 0 0 0 0 0 0 0 0 0 0 0 0 0 0 0 0 0 0.25 0" />
      <feBlend mode="normal" in2="BackgroundImageFix" result="effect1_dropShadow" />
      <feBlend mode="normal" in="SourceGraphic" in2="effect1_dropShadow" result="shape" />
    </filter>
  </defs>
</svg>
