<svg width="" height="" viewBox="0 0 463 292" fill="none" xmlns="http://www.w3.org/2000/svg">
<rect width="463" height="291.201" fill="white"/>
<circle cx="233" cy="145" r="145" fill="#3A61E0"/>
<path d="M106.722 163.074L134.573 189.142L138.573 176.142L106.722 163.074Z" fill="black"/>
<path d="M129.923 159.005L164.093 185.365L125.612 236.249L86.175 215.715L129.923 159.005Z" fill="white" stroke="black" stroke-width="2"/>
<path d="M360.5 160L336.341 186.934L331.35 174.281L360.5 160Z" fill="black"/>
<rect x="300.327" y="176.347" width="40" height="69.7894" transform="rotate(-23.3148 300.327 176.347)" fill="white" stroke="black" stroke-width="2"/>
<mask id="path-6-outside-1" maskUnits="userSpaceOnUse" x="102.478" y="97.2013" width="259" height="116" fill="black">
<rect fill="white" x="102.478" y="97.2013" width="259" height="116"/>
<path fill-rule="evenodd" clip-rule="evenodd" d="M165.816 105.871C169.973 101.748 175.695 99.2013 182.013 99.2013H280.013C286.392 99.2013 292.165 101.798 296.331 105.993L357.32 159.688L302.997 189.065C302.543 201.368 292.426 211.201 280.013 211.201H182.013C169.31 211.201 159.013 200.904 159.013 188.201V182.833L106.478 160.754L165.816 105.871Z"/>
</mask>
<path fill-rule="evenodd" clip-rule="evenodd" d="M165.816 105.871C169.973 101.748 175.695 99.2013 182.013 99.2013H280.013C286.392 99.2013 292.165 101.798 296.331 105.993L357.32 159.688L302.997 189.065C302.543 201.368 292.426 211.201 280.013 211.201H182.013C169.31 211.201 159.013 200.904 159.013 188.201V182.833L106.478 160.754L165.816 105.871Z" fill="black"/>
<path d="M165.816 105.871L167.174 107.34L167.2 107.316L167.225 107.291L165.816 105.871ZM296.331 105.993L294.912 107.402L294.959 107.45L295.009 107.494L296.331 105.993ZM357.32 159.688L358.272 161.447L360.795 160.082L358.642 158.187L357.32 159.688ZM302.997 189.065L302.046 187.306L301.041 187.85L300.998 188.992L302.997 189.065ZM159.013 182.833H161.013V181.504L159.788 180.989L159.013 182.833ZM106.478 160.754L105.12 159.286L102.84 161.394L105.703 162.598L106.478 160.754ZM182.013 97.2013C175.147 97.2013 168.924 99.9719 164.408 104.451L167.225 107.291C171.022 103.525 176.244 101.201 182.013 101.201V97.2013ZM280.013 97.2013H182.013V101.201H280.013V97.2013ZM297.75 104.583C293.224 100.026 286.946 97.2013 280.013 97.2013V101.201C285.838 101.201 291.106 103.57 294.912 107.402L297.75 104.583ZM358.642 158.187L297.653 104.492L295.009 107.494L355.999 161.189L358.642 158.187ZM303.948 190.825L358.272 161.447L356.369 157.929L302.046 187.306L303.948 190.825ZM280.013 213.201C293.506 213.201 304.502 202.513 304.996 189.139L300.998 188.992C300.583 200.223 291.346 209.201 280.013 209.201V213.201ZM182.013 213.201H280.013V209.201H182.013V213.201ZM157.013 188.201C157.013 202.008 168.206 213.201 182.013 213.201V209.201C170.415 209.201 161.013 199.799 161.013 188.201H157.013ZM157.013 182.833V188.201H161.013V182.833H157.013ZM105.703 162.598L158.238 184.677L159.788 180.989L107.253 158.91L105.703 162.598ZM164.458 104.403L105.12 159.286L107.836 162.222L167.174 107.34L164.458 104.403Z" fill="white" mask="url(#path-6-outside-1)"/>
<path d="M174 104.201L171.301 147.504L169.013 184.201" stroke="#201E1E" stroke-width="2" stroke-linecap="square" stroke-linejoin="bevel"/>
<path d="M179 121.201L174.67 140.688L171 157.201" stroke="#201E1E" stroke-width="2" stroke-linecap="square" stroke-linejoin="bevel"/>
<path d="M286 104.201L289.785 148.045L292.993 185.201" stroke="#201E1E" stroke-width="2" stroke-linecap="square" stroke-linejoin="bevel"/>
<path d="M282 125.201L285.789 135.486L289 144.201" stroke="#201E1E" stroke-width="2" stroke-linecap="square" stroke-linejoin="bevel"/>
<path d="M186.3 160.073H186.902C187.593 160.073 188.088 159.985 188.386 159.807C188.685 159.63 188.834 159.345 188.834 158.953C188.834 158.561 188.685 158.277 188.386 158.099C188.088 157.922 187.593 157.833 186.902 157.833H186.3V160.073ZM186.3 155.789H186.804C187.663 155.789 188.092 155.449 188.092 154.767C188.092 154.086 187.663 153.745 186.804 153.745H186.3V155.789ZM183.556 151.645H187.644C188.615 151.645 189.352 151.879 189.856 152.345C190.36 152.812 190.612 153.484 190.612 154.361C190.612 154.893 190.514 155.337 190.318 155.691C190.132 156.037 189.842 156.331 189.45 156.573C189.842 156.648 190.174 156.765 190.444 156.923C190.724 157.073 190.948 157.259 191.116 157.483C191.294 157.707 191.42 157.959 191.494 158.239C191.569 158.519 191.606 158.818 191.606 159.135C191.606 159.63 191.518 160.069 191.34 160.451C191.172 160.834 190.93 161.156 190.612 161.417C190.304 161.679 189.926 161.875 189.478 162.005C189.03 162.136 188.526 162.201 187.966 162.201H183.556V151.645ZM195.994 151.645V159.877H199.284V162.201H193.25V151.645H195.994ZM206.878 158.281L205.646 154.767L204.414 158.281H206.878ZM207.606 160.367H203.686L203.056 162.201H200.13L204.148 151.645H207.144L211.162 162.201H208.236L207.606 160.367ZM219.568 155.173C218.934 154.399 218.15 154.011 217.216 154.011C216.806 154.011 216.423 154.086 216.068 154.235C215.723 154.385 215.424 154.59 215.172 154.851C214.92 155.103 214.72 155.407 214.57 155.761C214.43 156.116 214.36 156.499 214.36 156.909C214.36 157.329 214.43 157.717 214.57 158.071C214.72 158.426 214.92 158.734 215.172 158.995C215.434 159.257 215.737 159.462 216.082 159.611C216.428 159.761 216.801 159.835 217.202 159.835C218.08 159.835 218.868 159.462 219.568 158.715V161.963L219.288 162.061C218.868 162.211 218.476 162.318 218.112 162.383C217.748 162.458 217.389 162.495 217.034 162.495C216.306 162.495 215.606 162.36 214.934 162.089C214.272 161.809 213.684 161.422 213.17 160.927C212.666 160.423 212.26 159.831 211.952 159.149C211.644 158.459 211.49 157.707 211.49 156.895C211.49 156.083 211.64 155.341 211.938 154.669C212.246 153.988 212.652 153.405 213.156 152.919C213.67 152.425 214.262 152.042 214.934 151.771C215.606 151.491 216.311 151.351 217.048 151.351C217.468 151.351 217.879 151.398 218.28 151.491C218.691 151.575 219.12 151.711 219.568 151.897V155.173ZM224.499 155.999L227.845 151.645H231.233L227.047 156.643L231.625 162.201H228.069L224.499 157.623V162.201H221.755V151.645H224.499V155.999ZM243.397 154.347C243.098 154.105 242.8 153.927 242.501 153.815C242.202 153.694 241.913 153.633 241.633 153.633C241.278 153.633 240.989 153.717 240.765 153.885C240.541 154.053 240.429 154.273 240.429 154.543C240.429 154.73 240.485 154.884 240.597 155.005C240.709 155.127 240.854 155.234 241.031 155.327C241.218 155.411 241.423 155.486 241.647 155.551C241.88 155.617 242.109 155.687 242.333 155.761C243.229 156.06 243.882 156.461 244.293 156.965C244.713 157.46 244.923 158.109 244.923 158.911C244.923 159.453 244.83 159.943 244.643 160.381C244.466 160.82 244.2 161.198 243.845 161.515C243.5 161.823 243.07 162.061 242.557 162.229C242.053 162.407 241.479 162.495 240.835 162.495C239.5 162.495 238.264 162.099 237.125 161.305L238.301 159.093C238.712 159.457 239.118 159.728 239.519 159.905C239.92 160.083 240.317 160.171 240.709 160.171C241.157 160.171 241.488 160.069 241.703 159.863C241.927 159.658 242.039 159.425 242.039 159.163C242.039 159.005 242.011 158.869 241.955 158.757C241.899 158.636 241.806 158.529 241.675 158.435C241.544 158.333 241.372 158.239 241.157 158.155C240.952 158.071 240.7 157.978 240.401 157.875C240.046 157.763 239.696 157.642 239.351 157.511C239.015 157.371 238.712 157.189 238.441 156.965C238.18 156.741 237.965 156.461 237.797 156.125C237.638 155.78 237.559 155.346 237.559 154.823C237.559 154.301 237.643 153.829 237.811 153.409C237.988 152.98 238.231 152.616 238.539 152.317C238.856 152.009 239.239 151.771 239.687 151.603C240.144 151.435 240.653 151.351 241.213 151.351C241.736 151.351 242.282 151.426 242.851 151.575C243.42 151.715 243.966 151.925 244.489 152.205L243.397 154.347ZM249.396 155.719H253.358V151.645H256.102V162.201H253.358V157.847H249.396V162.201H246.652V151.645H249.396V155.719ZM261.058 151.645V162.201H258.314V151.645H261.058ZM266.007 156.363H266.525C267.067 156.363 267.482 156.251 267.771 156.027C268.061 155.803 268.205 155.481 268.205 155.061C268.205 154.641 268.061 154.319 267.771 154.095C267.482 153.871 267.067 153.759 266.525 153.759H266.007V156.363ZM272.041 162.201H268.625L266.007 158.141V162.201H263.263V151.645H267.533C268.121 151.645 268.635 151.734 269.073 151.911C269.512 152.079 269.871 152.313 270.151 152.611C270.441 152.91 270.655 153.255 270.795 153.647C270.945 154.039 271.019 154.459 271.019 154.907C271.019 155.71 270.823 156.363 270.431 156.867C270.049 157.362 269.479 157.698 268.723 157.875L272.041 162.201ZM277.207 153.969V162.201H274.463V153.969H272.209V151.645H279.461V153.969H277.207Z" fill="#343030"/>
<rect x="150.013" y="279.201" width="163" height="11" rx="5" fill="white" stroke="black" stroke-width="2"/>
<path d="M159.013 182.201H303.013C308.536 182.201 313.013 186.678 313.013 192.201V268.201C313.013 273.724 308.536 278.201 303.013 278.201H159.013C153.49 278.201 149.013 273.724 149.013 268.201V192.201C149.013 186.678 153.49 182.201 159.013 182.201Z" fill="white" stroke="black" stroke-width="2"/>
<path d="M153.013 195.701V192.201C153.013 188.888 155.699 186.201 159.013 186.201H163.013" stroke="black" stroke-linecap="round"/>
<path d="M153.013 198.201L153.013 199.201" stroke="black" stroke-linecap="round"/>
<rect x="271.513" y="230.701" width="30" height="38" fill="#F9DF80" stroke="black"/>
<mask id="path-18-inside-2" fill="white">
<path fill-rule="evenodd" clip-rule="evenodd" d="M207.013 63.2013H202.013C199.252 63.2013 197.013 65.4399 197.013 68.2013V75.2013C197.013 77.9627 199.252 80.2013 202.013 80.2013H207.013V63.2013Z"/>
</mask>
<path fill-rule="evenodd" clip-rule="evenodd" d="M207.013 63.2013H202.013C199.252 63.2013 197.013 65.4399 197.013 68.2013V75.2013C197.013 77.9627 199.252 80.2013 202.013 80.2013H207.013V63.2013Z" fill="white"/>
<path d="M207.013 63.2013H208.013V62.2013H207.013V63.2013ZM207.013 80.2013V81.2013H208.013V80.2013H207.013ZM202.013 64.2013H207.013V62.2013H202.013V64.2013ZM198.013 68.2013C198.013 65.9922 199.804 64.2013 202.013 64.2013V62.2013C198.699 62.2013 196.013 64.8876 196.013 68.2013H198.013ZM198.013 75.2013V68.2013H196.013V75.2013H198.013ZM202.013 79.2013C199.804 79.2013 198.013 77.4104 198.013 75.2013H196.013C196.013 78.515 198.699 81.2013 202.013 81.2013V79.2013ZM207.013 79.2013H202.013V81.2013H207.013V79.2013ZM208.013 80.2013V63.2013H206.013V80.2013H208.013Z" fill="black" mask="url(#path-18-inside-2)"/>
<path d="M229.7 29.2013H231.816C242.107 29.2013 250.882 36.6586 252.541 46.8148L257.852 79.3148C259.94 92.095 250.076 103.701 237.127 103.701H225.239C212.506 103.701 202.703 92.4605 204.434 79.8457L208.895 47.3457C210.322 36.9487 219.205 29.2013 229.7 29.2013Z" fill="black" stroke="black" stroke-width="2"/>
<path fill-rule="evenodd" clip-rule="evenodd" d="M203.996 76.5797C204.107 76.8493 204.425 76.9704 204.671 76.8136C206.615 75.5727 207.452 73.0804 206.541 70.8736L206.047 69.6773C205.137 67.4705 202.786 66.2935 200.532 66.7853C200.247 66.8475 200.107 67.1575 200.219 67.4271V67.4271C200.319 67.6696 200.588 67.7911 200.846 67.7421C202.604 67.4078 204.413 68.3398 205.123 70.0588L205.617 71.2551C206.326 72.9741 205.7 74.9113 204.218 75.9143C204.001 76.0613 203.896 76.3372 203.996 76.5797V76.5797Z" fill="black"/>
<path fill-rule="evenodd" clip-rule="evenodd" d="M207.013 69.6359C207.013 69.4327 206.862 69.2615 206.66 69.2371V69.2371C205.073 69.0446 203.572 69.6414 202.55 70.7191C202.276 71.0089 202.477 71.4545 202.874 71.5026V71.5026C203.052 71.5242 203.227 71.4539 203.354 71.3274C204.162 70.5218 205.319 70.0818 206.539 70.2298V70.2298C206.791 70.2603 207.013 70.0637 207.013 69.81V69.6359Z" fill="black"/>
<mask id="path-23-inside-3" fill="white">
<path fill-rule="evenodd" clip-rule="evenodd" d="M256.013 63.2013H260.013C262.775 63.2013 265.013 65.4399 265.013 68.2013V75.2013C265.013 77.9627 262.775 80.2013 260.013 80.2013H256.013V63.2013Z"/>
</mask>
<path fill-rule="evenodd" clip-rule="evenodd" d="M256.013 63.2013H260.013C262.775 63.2013 265.013 65.4399 265.013 68.2013V75.2013C265.013 77.9627 262.775 80.2013 260.013 80.2013H256.013V63.2013Z" fill="white"/>
<path d="M256.013 63.2013H255.013V62.2013H256.013V63.2013ZM256.013 80.2013V81.2013H255.013V80.2013H256.013ZM260.013 64.2013H256.013V62.2013H260.013V64.2013ZM264.013 68.2013C264.013 65.9922 262.222 64.2013 260.013 64.2013V62.2013C263.327 62.2013 266.013 64.8876 266.013 68.2013H264.013ZM264.013 75.2013V68.2013H266.013V75.2013H264.013ZM260.013 79.2013C262.222 79.2013 264.013 77.4104 264.013 75.2013H266.013C266.013 78.515 263.327 81.2013 260.013 81.2013V79.2013ZM256.013 79.2013H260.013V81.2013H256.013V79.2013ZM255.013 80.2013V63.2013H257.013V80.2013H255.013Z" fill="black" mask="url(#path-23-inside-3)"/>
<path fill-rule="evenodd" clip-rule="evenodd" d="M258.405 76.5797C258.294 76.8493 257.976 76.9704 257.731 76.8136C255.786 75.5727 254.95 73.0804 255.86 70.8736L256.354 69.6773C257.265 67.4705 259.615 66.2935 261.869 66.7853C262.154 66.8475 262.294 67.1575 262.183 67.4271V67.4271C262.083 67.6696 261.814 67.7911 261.556 67.7421C259.798 67.4078 257.988 68.3398 257.278 70.0588L256.785 71.2551C256.075 72.9741 256.701 74.9113 258.183 75.9143C258.4 76.0613 258.505 76.3372 258.405 76.5797V76.5797Z" fill="black"/>
<path fill-rule="evenodd" clip-rule="evenodd" d="M255.388 69.6359C255.388 69.4327 255.54 69.2615 255.742 69.2371V69.2371C257.329 69.0446 258.83 69.6414 259.851 70.7191C260.126 71.0089 259.924 71.4545 259.528 71.5026V71.5026C259.35 71.5242 259.174 71.4539 259.047 71.3274C258.239 70.5218 257.083 70.0818 255.862 70.2298V70.2298C255.61 70.2603 255.388 70.0637 255.388 69.81V69.6359Z" fill="black"/>
<path d="M233.513 114.201H233.492L233.471 114.202L224.604 114.577C211.42 115.134 200.995 103.537 202.949 90.4865L208.696 52.0922C210.236 41.8096 219.068 34.2013 229.465 34.2013H232.173C242.313 34.2013 251.005 41.4475 252.83 51.4225L259.781 89.4225C262.14 102.32 252.235 114.201 239.124 114.201H233.513Z" fill="white" stroke="black" stroke-width="2"/>
<path d="M207.016 57.2864H207.044H207.073H207.102H207.131H207.159H207.188H207.217H207.246H207.274H207.303H207.331H207.36H207.389H207.417H207.446H207.474H207.503H207.531H207.56H207.588H207.616H207.645H207.673H207.701H207.73H207.758H207.786H207.814H207.842H207.871H207.899H207.927H207.955H207.983H208.011H208.039H208.067H208.095H208.123H208.151H208.179H208.207H208.235H208.263H208.291H208.319H208.346H208.374H208.402H208.43H208.457H208.485H208.513H208.54H208.568H208.596H208.623H208.651H208.678H208.706H208.734H208.761H208.788H208.816H208.843H208.871H208.898H208.926H208.953H208.98H209.008H209.035H209.062H209.09H209.117H209.144H209.171H209.198H209.226H209.253H209.28H209.307H209.334H209.361H209.388H209.415H209.442H209.469H209.496H209.523H209.55H209.577H209.604H209.631H209.658H209.685H209.712H209.738H209.765H209.792H209.819H209.846H209.872H209.899H209.926H209.953H209.979H210.006H210.033H210.059H210.086H210.112H210.139H210.165H210.192H210.219H210.245H210.272H210.298H210.325H210.351H210.377H210.404H210.43H210.457H210.483H210.509H210.536H210.562H210.588H210.615H210.641H210.667H210.693H210.72H210.746H210.772H210.798H210.825H210.851H210.877H210.903H210.929H210.955H210.981H211.007H211.033H211.059H211.086H211.112H211.138H211.164H211.19H211.215H211.241H211.267H211.293H211.319H211.345H211.371H211.397H211.423H211.449H211.474H211.5H211.526H211.552H211.578H211.603H211.629H211.655H211.681H211.706H211.732H211.758H211.784H211.809H211.835H211.861H211.886H211.912H211.937H211.963H211.989H212.014H212.04H212.065H212.091H212.116H212.142H212.167H212.193H212.219H212.244H212.269H212.295H212.32H212.346H212.371H212.397H212.422H212.447H212.473H212.498H212.524H212.549H212.574H212.6H212.625H212.65H212.676H212.701H212.726H212.752H212.777H212.802H212.827H212.853H212.878H212.903H212.928H212.954H212.979H213.004H213.029H213.054H213.079H213.105H213.13H213.155H213.18H213.205H213.23H213.255H213.281H213.306H213.331H213.356H213.381H213.406H213.431H213.456H213.481H213.506H213.531H213.556H213.581H213.606H213.631H213.656H213.681H213.706H213.731H213.756H213.781H213.806H213.831H213.856H213.881H213.906H213.931H213.956H213.981H214.005H214.03H214.055H214.08H214.105H214.13H214.155H214.18H214.204H214.229H214.254H214.279H214.304H214.329H214.354H214.378H214.403H214.428H214.453H214.478H214.502H214.527H214.552H214.577H214.602H214.626H214.651H214.676H214.701H214.725H214.75H214.775H214.8H214.825H214.849H214.874H214.899H214.923H214.948H214.973H214.998H215.022H215.047H215.072H215.097H215.121H215.146H215.171H215.195H215.22H215.245H215.27H215.294H215.319H215.344H215.368H215.393H215.418H215.442H215.467H215.492H215.516H215.541H215.566H215.59H215.615H215.64H215.664H215.689H215.714H215.738H215.763H215.788H215.812H215.837H215.862H215.886H215.911H215.936H215.96H215.985H216.01H216.034H216.059H216.084H216.108H216.133H216.158H216.182H216.207H216.232H216.256H216.281H216.306H216.33H216.355H216.38H216.404H216.429H216.454H216.478H216.503H216.528H216.552H216.577H216.602H216.626H216.651H216.676H216.7H216.725H216.75H216.774H216.799H216.824H216.849H216.873H216.898H216.923H216.947H216.972H216.997H217.021H217.046H217.071H217.096H217.12H217.145H217.17H217.195H217.219H217.244H217.269H217.293H217.318H217.343H217.368H217.392H217.417H217.442H217.467H217.492H217.516H217.541H217.566H217.591H217.615H217.64H217.665H217.69H217.715H217.74H217.764H217.789H217.814H217.839H217.864H217.889H217.913H217.938H217.963H217.988H218.013H218.038H218.063H218.087H218.112H218.137H218.162H218.187H218.212H218.237H218.262H218.287H218.312H218.337H218.362H218.387H218.412H218.437H218.461H218.486H218.511H218.536H218.561H218.586H218.612H218.637H218.662H218.687H218.712H218.737H218.762H218.787H218.812H218.837H218.862H218.887H218.912H218.937H218.963H218.988H219.013H219.038H219.063H219.088H219.114H219.139H219.164H219.189H219.214H219.24H219.265H219.29H219.315H219.34H219.366H219.391H219.416H219.442H219.467H219.492H219.518H219.543H219.568H219.594H219.619H219.644H219.67H219.695H219.72H219.746H219.771H219.797H219.822H219.848H219.873H219.899H219.924H219.949H219.975H220.001H220.026H220.052H220.077H220.103H220.128H220.154H220.179C224.022 57.2864 227.137 60.4014 227.137 64.2438C227.137 68.0863 224.022 71.2013 220.18 71.2013H215.013C209.49 71.2013 205.013 66.7241 205.013 61.2013V59.2864C205.013 58.1828 205.91 57.2864 207.016 57.2864Z" fill="white" stroke="black" stroke-width="2"/>
<path d="M257.137 57.2864H241.971C238.128 57.2864 235.013 60.4013 235.013 64.2438C235.013 68.0863 238.128 71.2013 241.971 71.2013H247.137C252.66 71.2013 257.137 66.7241 257.137 61.2013V57.2864Z" fill="white" stroke="black" stroke-width="2"/>
<path fill-rule="evenodd" clip-rule="evenodd" d="M222.231 65.2013C221.132 63.9738 219.535 63.2013 217.758 63.2013C215.981 63.2013 214.385 63.9738 213.286 65.2013H212.013C213.278 63.3878 215.38 62.2013 217.758 62.2013C220.137 62.2013 222.239 63.3878 223.504 65.2013H222.231Z" fill="black"/>
<path fill-rule="evenodd" clip-rule="evenodd" d="M224.991 62.2013C224.69 62.2013 224.405 62.0759 224.187 61.8686C222.453 60.2159 220.105 59.2013 217.52 59.2013C214.935 59.2013 212.587 60.2159 210.853 61.8686C210.635 62.0759 210.35 62.2013 210.049 62.2013V62.2013C209.162 62.2013 208.667 61.2176 209.297 60.5919C211.406 58.4962 214.312 57.2013 217.52 57.2013C220.728 57.2013 223.634 58.4962 225.743 60.5919C226.373 61.2176 225.878 62.2013 224.991 62.2013V62.2013Z" fill="black"/>
<path fill-rule="evenodd" clip-rule="evenodd" d="M251.991 62.2013C251.69 62.2013 251.405 62.0759 251.187 61.8686C249.453 60.2159 247.105 59.2013 244.52 59.2013C241.935 59.2013 239.587 60.2159 237.853 61.8686C237.635 62.0759 237.35 62.2013 237.049 62.2013V62.2013C236.162 62.2013 235.667 61.2176 236.297 60.5919C238.406 58.4962 241.312 57.2013 244.52 57.2013C247.728 57.2013 250.634 58.4962 252.743 60.5919C253.373 61.2176 252.878 62.2013 251.991 62.2013V62.2013Z" fill="black"/>
<mask id="path-33-outside-4" maskUnits="userSpaceOnUse" x="199.725" y="74.2013" width="63" height="47" fill="black">
<rect fill="white" x="199.725" y="74.2013" width="63" height="47"/>
<path fill-rule="evenodd" clip-rule="evenodd" d="M227.814 76.8368C214.858 73.6614 202.098 82.7466 200.826 96.0258C199.594 108.899 209.713 120.06 222.645 120.06H240.067C253.04 120.06 263.06 108.66 261.395 95.7942C259.926 84.4386 249.816 76.2257 238.4 77.1135L234.718 77.3998C232.402 77.58 230.071 77.3899 227.814 76.8368ZM244.628 86.5308C243.667 86.5308 242.739 86.6746 241.866 86.9417C234.555 82.979 225.408 83.4192 218.506 88.0103C218.037 87.9425 217.556 87.9073 217.067 87.9073C211.859 87.9073 207.637 91.8947 207.637 96.8134C207.637 101.732 211.859 105.72 217.067 105.72C220.118 105.72 222.83 104.351 224.554 102.229C226.461 103.11 228.75 103.624 231.212 103.624C233.586 103.624 235.8 103.146 237.666 102.322C239.39 104.208 241.871 105.391 244.628 105.391C249.836 105.391 254.058 101.169 254.058 95.9609C254.058 90.7528 249.836 86.5308 244.628 86.5308Z"/>
</mask>
<path fill-rule="evenodd" clip-rule="evenodd" d="M227.814 76.8368C214.858 73.6614 202.098 82.7466 200.826 96.0258C199.594 108.899 209.713 120.06 222.645 120.06H240.067C253.04 120.06 263.06 108.66 261.395 95.7942C259.926 84.4386 249.816 76.2257 238.4 77.1135L234.718 77.3998C232.402 77.58 230.071 77.3899 227.814 76.8368ZM244.628 86.5308C243.667 86.5308 242.739 86.6746 241.866 86.9417C234.555 82.979 225.408 83.4192 218.506 88.0103C218.037 87.9425 217.556 87.9073 217.067 87.9073C211.859 87.9073 207.637 91.8947 207.637 96.8134C207.637 101.732 211.859 105.72 217.067 105.72C220.118 105.72 222.83 104.351 224.554 102.229C226.461 103.11 228.75 103.624 231.212 103.624C233.586 103.624 235.8 103.146 237.666 102.322C239.39 104.208 241.871 105.391 244.628 105.391C249.836 105.391 254.058 101.169 254.058 95.9609C254.058 90.7528 249.836 86.5308 244.628 86.5308Z" fill="black"/>
<path d="M200.826 96.0258L199.831 95.9305L199.831 95.9305L200.826 96.0258ZM227.814 76.8368L227.576 77.8081L227.576 77.8081L227.814 76.8368ZM261.395 95.7942L262.387 95.6659L261.395 95.7942ZM238.4 77.1135L238.478 78.1105L238.478 78.1105L238.4 77.1135ZM234.718 77.3998L234.641 76.4028L234.641 76.4028L234.718 77.3998ZM241.866 86.9417L241.389 87.8209L241.758 88.0205L242.158 87.898L241.866 86.9417ZM218.506 88.0103L218.363 89L218.741 89.0548L219.06 88.8429L218.506 88.0103ZM224.554 102.229L224.973 101.321L224.267 100.995L223.777 101.599L224.554 102.229ZM237.666 102.322L238.404 101.647L237.919 101.116L237.261 101.407L237.666 102.322ZM201.822 96.1211C203.035 83.4472 215.214 74.7782 227.576 77.8081L228.053 75.8656C214.502 72.5447 201.16 82.0459 199.831 95.9305L201.822 96.1211ZM222.645 119.06C210.304 119.06 200.645 108.408 201.822 96.1211L199.831 95.9305C198.542 109.389 209.122 121.06 222.645 121.06V119.06ZM240.067 119.06H222.645V121.06H240.067V119.06ZM260.403 95.9226C261.991 108.19 252.437 119.06 240.067 119.06V121.06C253.644 121.06 264.129 109.13 262.387 95.6659L260.403 95.9226ZM238.478 78.1105C249.363 77.264 259.002 85.0949 260.403 95.9226L262.387 95.6659C260.849 83.7822 250.269 75.1874 238.323 76.1165L238.478 78.1105ZM234.796 78.3968L238.478 78.1105L238.323 76.1165L234.641 76.4028L234.796 78.3968ZM227.576 77.8081C229.936 78.3865 232.373 78.5852 234.796 78.3968L234.641 76.4028C232.43 76.5748 230.206 76.3934 228.053 75.8656L227.576 77.8081ZM242.158 87.898C242.938 87.6595 243.767 87.5308 244.628 87.5308V85.5308C243.566 85.5308 242.541 85.6896 241.573 85.9854L242.158 87.898ZM219.06 88.8429C225.655 84.4558 234.405 84.0356 241.389 87.8209L242.342 86.0625C234.704 81.9225 225.161 82.3825 217.952 87.1777L219.06 88.8429ZM217.067 88.9073C217.508 88.9073 217.941 88.939 218.363 89L218.649 87.0206C218.132 86.9459 217.604 86.9073 217.067 86.9073V88.9073ZM208.637 96.8134C208.637 92.5 212.356 88.9073 217.067 88.9073V86.9073C211.361 86.9073 206.637 91.2893 206.637 96.8134H208.637ZM217.067 104.72C212.356 104.72 208.637 101.127 208.637 96.8134H206.637C206.637 102.337 211.361 106.72 217.067 106.72V104.72ZM223.777 101.599C222.243 103.487 219.816 104.72 217.067 104.72V106.72C220.419 106.72 223.417 105.215 225.33 102.86L223.777 101.599ZM231.212 102.624C228.886 102.624 226.741 102.138 224.973 101.321L224.134 103.137C226.181 104.083 228.614 104.624 231.212 104.624V102.624ZM237.261 101.407C235.53 102.172 233.455 102.624 231.212 102.624V104.624C233.718 104.624 236.07 104.12 238.07 103.236L237.261 101.407ZM244.628 104.391C242.163 104.391 239.947 103.335 238.404 101.647L236.928 102.996C238.833 105.081 241.578 106.391 244.628 106.391V104.391ZM253.058 95.9609C253.058 100.617 249.283 104.391 244.628 104.391V106.391C250.388 106.391 255.058 101.721 255.058 95.9609H253.058ZM244.628 87.5308C249.283 87.5308 253.058 91.3051 253.058 95.9609H255.058C255.058 90.2005 250.388 85.5308 244.628 85.5308V87.5308Z" fill="white" mask="url(#path-33-outside-4)"/>
<path fill-rule="evenodd" clip-rule="evenodd" d="M227.967 74.9493C215.601 71.9187 203.423 80.5896 202.209 93.2633C201.033 105.549 210.691 116.201 223.033 116.201H239.661C252.043 116.201 261.605 105.321 260.016 93.0423C258.614 82.2044 248.965 74.3661 238.07 75.2134L234.556 75.4867C232.345 75.6586 230.121 75.4772 227.967 74.9493ZM244.013 84.2013C243.096 84.2013 242.211 84.3384 241.377 84.5934C234.4 80.8114 225.67 81.2315 219.083 85.6133C218.635 85.5485 218.176 85.5149 217.709 85.5149C212.739 85.5149 208.709 89.3205 208.709 94.0149C208.709 98.7094 212.739 102.515 217.709 102.515C220.621 102.515 223.21 101.209 224.855 99.1837C226.675 100.025 228.86 100.515 231.209 100.515C233.475 100.515 235.588 100.059 237.369 99.2719C239.014 101.072 241.382 102.201 244.013 102.201C248.984 102.201 253.013 98.1718 253.013 93.2013C253.013 88.2307 248.984 84.2013 244.013 84.2013Z" fill="black"/>
<path fill-rule="evenodd" clip-rule="evenodd" d="M248.231 65.2013C247.132 63.9738 245.535 63.2013 243.758 63.2013C241.981 63.2013 240.385 63.9738 239.286 65.2013H238.013C239.278 63.3878 241.38 62.2013 243.758 62.2013C246.137 62.2013 248.239 63.3878 249.504 65.2013H248.231Z" fill="black"/>
<path d="M203.013 57.3263C203.013 56.774 203.461 56.3263 204.013 56.3263H206.013C206.565 56.3263 207.013 56.774 207.013 57.3263V57.3263C207.013 57.8786 206.565 58.3263 206.013 58.3263H204.013C203.461 58.3263 203.013 57.8786 203.013 57.3263V57.3263Z" fill="black"/>
<line x1="204.263" y1="57.2013" x2="204.763" y2="57.2013" stroke="white" stroke-width="0.5" stroke-linecap="round" stroke-linejoin="round"/>
<path d="M259.013 57.3263C259.013 56.774 258.565 56.3263 258.013 56.3263H256.013C255.461 56.3263 255.013 56.774 255.013 57.3263V57.3263C255.013 57.8786 255.461 58.3263 256.013 58.3263H258.013C258.565 58.3263 259.013 57.8786 259.013 57.3263V57.3263Z" fill="black"/>
<line x1="0.25" y1="-0.25" x2="0.75" y2="-0.25" transform="matrix(-1 0 0 1 258.013 57.4513)" stroke="white" stroke-width="0.5" stroke-linecap="round" stroke-linejoin="round"/>
<path d="M246.899 85.0894C240.674 97.945 222.077 98.4391 215.369 85.3669L214.679 84.0215L246.899 85.0894Z" fill="white" stroke="black" stroke-width="2"/>
<path d="M233.208 63.2691L240.154 76.0042C241.063 77.6701 239.857 79.7013 237.96 79.7013H231.013H224.067C222.169 79.7013 220.963 77.6701 221.872 76.0042L228.818 63.2691C229.766 61.532 232.26 61.532 233.208 63.2691Z" fill="white" stroke="black"/>
<path fill-rule="evenodd" clip-rule="evenodd" d="M233.986 64.2013C233.757 63.2177 232.705 62.2013 231.013 62.2013C229.321 62.2013 228.269 63.2177 228.04 64.2013H226.013C226.244 61.9587 228.394 60.2013 231.013 60.2013C233.632 60.2013 235.783 61.9587 236.013 64.2013H233.986Z" fill="black"/>
<path d="M225.513 78.7013C225.513 79.2536 225.065 79.7013 224.513 79.7013C223.961 79.7013 223.513 79.2536 223.513 78.7013C223.513 78.149 223.961 77.7013 224.513 77.7013C225.065 77.7013 225.513 78.149 225.513 78.7013Z" stroke="black"/>
<circle cx="237.513" cy="78.7013" r="1" stroke="black"/>
<ellipse cx="231.013" cy="33.7013" rx="12" ry="4.5" fill="black"/>
<line x1="221.513" y1="84.2013" x2="221.513" y2="91.2013" stroke="black"/>
<path d="M227.513 84.2013L227.513 94.7013" stroke="black"/>
<line x1="233.513" y1="85.2013" x2="233.513" y2="94.2013" stroke="black"/>
<line x1="239.513" y1="84.2013" x2="239.513" y2="93.2013" stroke="black"/>
<path d="M246.376 230.132C246.376 228.166 243.91 226.304 240.13 225.149C241.003 221.303 240.615 218.243 238.907 217.263C238.513 217.033 238.053 216.924 237.55 216.924V218.273C237.828 218.273 238.053 218.327 238.24 218.43C239.064 218.902 239.422 220.698 239.143 223.008C239.076 223.576 238.967 224.175 238.834 224.786C237.647 224.496 236.35 224.272 234.987 224.127C234.17 223.008 233.322 221.992 232.467 221.103C234.442 219.271 236.296 218.267 237.556 218.267V216.918C235.89 216.918 233.709 218.104 231.504 220.16C229.299 218.116 227.118 216.942 225.453 216.942V218.291C226.707 218.291 228.566 219.289 230.541 221.109C229.693 221.998 228.845 223.008 228.039 224.127C226.67 224.272 225.374 224.496 224.186 224.792C224.047 224.187 223.944 223.601 223.871 223.038C223.587 220.728 223.938 218.932 224.756 218.454C224.938 218.345 225.174 218.297 225.453 218.297V216.948C224.944 216.948 224.483 217.057 224.084 217.287C222.381 218.267 222 221.321 222.878 225.155C219.11 226.316 216.657 228.172 216.657 230.132C216.657 232.097 219.122 233.96 222.902 235.115C222.03 238.961 222.418 242.021 224.126 243.001C224.52 243.23 224.98 243.339 225.489 243.339C227.155 243.339 229.336 242.154 231.541 240.098C233.746 242.142 235.926 243.315 237.592 243.315C238.101 243.315 238.561 243.206 238.961 242.976C240.664 241.997 241.045 238.943 240.167 235.109C243.923 233.954 246.376 232.091 246.376 230.132ZM238.489 226.098C238.265 226.878 237.986 227.683 237.671 228.487C237.423 228.003 237.162 227.519 236.877 227.035C236.599 226.552 236.302 226.08 236.005 225.62C236.865 225.747 237.695 225.905 238.489 226.098ZM235.714 232.539C235.242 233.355 234.757 234.129 234.254 234.849C233.352 234.927 232.437 234.97 231.516 234.97C230.602 234.97 229.687 234.927 228.79 234.855C228.288 234.135 227.797 233.367 227.324 232.557C226.864 231.765 226.446 230.96 226.064 230.15C226.44 229.34 226.864 228.529 227.318 227.737C227.791 226.921 228.275 226.147 228.778 225.427C229.681 225.348 230.596 225.306 231.516 225.306C232.431 225.306 233.346 225.348 234.242 225.421C234.745 226.14 235.236 226.909 235.708 227.719C236.169 228.511 236.587 229.315 236.968 230.126C236.587 230.936 236.169 231.746 235.714 232.539ZM237.671 231.752C237.998 232.563 238.277 233.373 238.507 234.159C237.713 234.353 236.877 234.516 236.011 234.643C236.308 234.177 236.605 233.7 236.883 233.21C237.162 232.726 237.423 232.236 237.671 231.752ZM231.528 238.205C230.965 237.624 230.402 236.977 229.844 236.27C230.39 236.294 230.947 236.312 231.51 236.312C232.08 236.312 232.643 236.3 233.194 236.27C232.649 236.977 232.086 237.624 231.528 238.205ZM227.022 234.643C226.161 234.516 225.331 234.359 224.538 234.165C224.762 233.385 225.041 232.581 225.356 231.777C225.604 232.26 225.864 232.744 226.149 233.228C226.434 233.712 226.725 234.183 227.022 234.643ZM231.498 222.059C232.062 222.639 232.625 223.286 233.182 223.994C232.637 223.969 232.08 223.951 231.516 223.951C230.947 223.951 230.384 223.963 229.832 223.994C230.377 223.286 230.941 222.639 231.498 222.059ZM227.015 225.62C226.719 226.086 226.422 226.564 226.143 227.054C225.864 227.537 225.604 228.021 225.356 228.505C225.029 227.695 224.75 226.884 224.52 226.098C225.313 225.911 226.149 225.747 227.015 225.62ZM221.533 233.192C219.389 232.279 218.002 231.081 218.002 230.132C218.002 229.182 219.389 227.979 221.533 227.072C222.054 226.848 222.624 226.648 223.211 226.461C223.556 227.646 224.011 228.88 224.574 230.144C224.017 231.402 223.569 232.629 223.229 233.809C222.63 233.621 222.06 233.415 221.533 233.192ZM224.792 241.833C223.968 241.362 223.611 239.566 223.89 237.256C223.956 236.687 224.065 236.088 224.199 235.478C225.386 235.768 226.682 235.992 228.045 236.137C228.863 237.256 229.711 238.272 230.565 239.16C228.59 240.993 226.737 241.997 225.477 241.997C225.204 241.991 224.974 241.936 224.792 241.833ZM239.161 237.225C239.446 239.535 239.095 241.331 238.277 241.809C238.095 241.918 237.859 241.966 237.58 241.966C236.326 241.966 234.466 240.969 232.492 239.148C233.34 238.259 234.188 237.25 234.993 236.131C236.363 235.986 237.659 235.762 238.846 235.466C238.986 236.076 239.095 236.663 239.161 237.225ZM241.493 233.192C240.972 233.415 240.403 233.615 239.815 233.803C239.47 232.617 239.016 231.384 238.452 230.12C239.01 228.862 239.458 227.634 239.797 226.455C240.397 226.642 240.966 226.848 241.499 227.072C243.644 227.985 245.031 229.182 245.031 230.132C245.025 231.081 243.638 232.285 241.493 233.192Z" fill="#C4C4C4"/>
<path d="M231.51 232.895C233.039 232.895 234.278 231.658 234.278 230.132C234.278 228.605 233.039 227.368 231.51 227.368C229.981 227.368 228.742 228.605 228.742 230.132C228.742 231.658 229.981 232.895 231.51 232.895Z" fill="#C4C4C4"/>
<g clip-path="url(#clip0)">
<path fill-rule="evenodd" clip-rule="evenodd" d="M278.638 262.976L277.738 259.151V260.976V262.976H276.213V255.051H277.738V259.151L278.613 255.051H280.088L279.188 259.151L280.188 262.976H278.638Z" fill="black"/>
<path fill-rule="evenodd" clip-rule="evenodd" d="M282.038 262.976V255.051H285.413V256.401H283.713V258.126H284.838V259.676H283.713V261.576H285.413V262.976H282.038Z" fill="black"/>
<path d="M280.213 237.351H276.188V253.501H280.213V237.351Z" fill="black"/>
<path d="M296.838 239.001H292.813V253.501H296.838V239.001Z" fill="black"/>
<path d="M291.288 235.426H287.263V253.501H291.288V235.426Z" fill="black"/>
<path d="M285.738 241.701H281.713V253.501H285.738V241.701Z" fill="black"/>
<path fill-rule="evenodd" clip-rule="evenodd" d="M289.788 262.976L289.263 260.501L288.638 262.976H287.188L288.413 259.051L287.263 255.051H288.813L289.313 257.676L289.938 255.051H291.388L290.188 258.826L291.338 262.976H289.788Z" fill="black"/>
<path fill-rule="evenodd" clip-rule="evenodd" d="M295.313 260.001H294.713V262.976H293.188V255.051H295.313C296.113 255.051 296.813 255.526 296.813 256.626V258.401C296.813 259.526 296.113 260.001 295.313 260.001ZM295.363 256.701C295.363 256.451 295.263 256.351 295.088 256.351H294.713V258.826H295.088C295.263 258.826 295.363 258.726 295.363 258.476V256.701Z" fill="black"/>
</g>
<g clip-path="url(#clip1)">
<path d="M201.002 204.301L200.965 204.14C197.36 204.986 193.966 206.525 191.953 207.544C191.738 206.178 191.203 204.737 190.494 203.181C189.478 200.95 187.825 199.547 185.843 198.81C185.732 197.934 185.273 196.084 183.405 194.3C183.405 194.3 181.64 194.513 179.214 198.433C177.693 198.715 176.162 199.209 174.706 199.872C173.104 200.602 171.578 201.543 170.256 202.645C165.54 201.833 164.18 203.059 164.18 203.059C164.323 206.121 165.838 207.747 166.25 208.134C165.629 210.003 165.649 212.019 166.586 214.075C167.293 215.627 168.104 216.939 169.088 217.952C166.985 218.819 163.731 220.337 160.834 222.425L160.93 222.559C163.844 220.458 167.122 218.938 169.214 218.079C169.423 218.286 169.64 218.48 169.866 218.661C167.862 219.653 164.508 221.494 161.607 223.947L161.714 224.073C164.638 221.6 168.025 219.752 170.011 218.773C172.256 220.481 175.317 220.85 179.788 219.367C179.368 220.049 179.065 221.02 179.347 222.301C178.702 223.071 176.531 225.22 173.74 223.245C173.74 223.245 172.135 222.044 170.401 222.683C170.401 222.683 168.762 223.4 170.75 223.747C170.75 223.747 172.072 223.763 173.7 225.346C173.7 225.346 176.176 228.183 180.425 224.975L181.97 228.367C181.97 228.367 182.417 229.612 181.497 230.514C181.497 230.514 181.052 231.26 181.866 231.19C181.866 231.19 185.033 230.049 183.895 227.55L182.21 223.852C182.21 223.852 181.42 222.44 181.91 221.602L184.677 227.676C184.677 227.676 185.288 229.149 184.788 230.041C184.788 230.041 184.697 231.168 185.684 230.417C185.684 230.417 187.65 229.159 186.634 226.664L183.881 220.495L184.386 220.265L187.235 226.391C188.451 228.794 190.69 228.136 190.69 228.136C191.904 227.884 190.994 227.213 190.994 227.213C189.993 227.005 189.283 225.578 189.283 225.578L186.539 219.556C187.515 219.788 188.016 221.206 188.016 221.206L189.701 224.905C190.839 227.404 193.779 225.763 193.779 225.763C194.365 225.194 193.51 225.04 193.51 225.04C192.227 225.142 191.58 223.988 191.58 223.988L189.371 219.14C188.51 217.25 187.257 216.612 186.236 216.438C190.576 213.918 192.089 211.459 192.057 208.724C194.072 207.872 197.765 206.482 201.632 205.886L201.607 205.723C197.762 206.316 194.09 207.689 192.053 208.547C192.043 208.273 192.018 207.996 191.979 207.717C193.982 206.702 197.389 205.151 201.008 204.301L201.002 204.301Z" fill="black"/>
<path d="M186.002 205.102C187.384 205.541 188.444 206.35 188.969 207.502C191.42 212.881 187.47 214.857 182.517 217.114C177.563 219.371 173.208 220.455 171.03 215.675C170.509 214.53 170.589 213.211 171.154 211.888C172.097 209.684 175.181 209.218 178.277 207.808C181.359 206.403 183.721 204.377 186.001 205.101L186.002 205.102Z" fill="white"/>
<path d="M176.558 213.528C177.008 214.515 176.815 215.57 176.129 215.883C175.442 216.195 174.52 215.649 174.07 214.661C173.62 213.673 173.812 212.619 174.499 212.306C175.185 211.993 176.108 212.539 176.558 213.527L176.558 213.528Z" fill="black"/>
<path d="M186.571 208.966C187.021 209.954 186.827 211.008 186.141 211.321C185.454 211.634 184.532 211.087 184.082 210.1C183.632 209.112 183.824 208.057 184.511 207.744C185.197 207.431 186.12 207.978 186.57 208.966L186.571 208.966Z" fill="black"/>
<path d="M171.309 222.753C171.366 222.877 171.265 223.044 171.086 223.126C170.906 223.207 170.714 223.174 170.658 223.049C170.601 222.925 170.701 222.758 170.881 222.676C171.06 222.594 171.252 222.628 171.309 222.753L171.309 222.753Z" fill="white"/>
<path d="M172.427 222.847C172.484 222.971 172.383 223.138 172.204 223.22C172.024 223.301 171.833 223.268 171.776 223.143C171.719 223.019 171.819 222.852 171.999 222.77C172.179 222.688 172.37 222.722 172.427 222.847L172.427 222.847Z" fill="white"/>
<path d="M173.274 223.246C173.331 223.37 173.231 223.537 173.051 223.619C172.872 223.701 172.68 223.667 172.623 223.542C172.566 223.418 172.667 223.251 172.846 223.169C173.026 223.087 173.217 223.121 173.274 223.246L173.274 223.246Z" fill="white"/>
<path d="M174.116 223.768C174.173 223.892 174.072 224.059 173.893 224.141C173.713 224.222 173.522 224.188 173.465 224.064C173.408 223.94 173.508 223.772 173.688 223.691C173.867 223.609 174.059 223.643 174.116 223.768L174.116 223.768Z" fill="white"/>
<path d="M174.985 224.217C175.042 224.341 174.942 224.508 174.762 224.59C174.582 224.672 174.391 224.638 174.334 224.513C174.277 224.389 174.377 224.222 174.557 224.14C174.737 224.058 174.928 224.092 174.985 224.217L174.985 224.217Z" fill="white"/>
<path d="M176.01 224.474C176.067 224.598 175.967 224.765 175.787 224.847C175.607 224.928 175.416 224.894 175.359 224.77C175.302 224.646 175.402 224.478 175.582 224.397C175.762 224.315 175.953 224.349 176.01 224.474L176.01 224.474Z" fill="white"/>
<path d="M177.243 224.395C177.3 224.519 177.2 224.686 177.02 224.768C176.841 224.85 176.649 224.816 176.592 224.692C176.536 224.567 176.636 224.4 176.815 224.318C176.995 224.236 177.187 224.27 177.244 224.395L177.243 224.395Z" fill="white"/>
<path d="M178.29 223.918C178.346 224.042 178.246 224.209 178.067 224.291C177.887 224.373 177.695 224.339 177.639 224.215C177.582 224.09 177.682 223.923 177.862 223.841C178.041 223.759 178.233 223.793 178.29 223.918L178.29 223.918Z" fill="white"/>
<path d="M179.272 223.261C179.329 223.385 179.229 223.552 179.049 223.634C178.87 223.716 178.678 223.682 178.621 223.558C178.564 223.433 178.665 223.266 178.844 223.184C179.024 223.102 179.215 223.136 179.272 223.261L179.272 223.261Z" fill="white"/>
</g>
<path d="M101.194 132.883L127.37 233.016C120.478 247.758 102.689 254.17 88.0967 246.919L67.8612 236.863C53.7883 229.87 46.5991 213.923 50.6775 198.747L64.4756 147.401L101.194 132.883Z" fill="white" stroke="black" stroke-width="2"/>
<rect x="32.3353" y="82.0642" width="14" height="49.8479" rx="7" transform="rotate(-16.0255 32.3353 82.0642)" fill="white" stroke="black" stroke-width="2"/>
<rect x="41.5075" y="62.7053" width="16" height="58.8333" rx="8" transform="rotate(-15.4426 41.5075 62.7053)" fill="white" stroke="black" stroke-width="2"/>
<rect x="73.5906" y="55.7922" width="16" height="58.8333" rx="8" transform="rotate(-14.0344 73.5906 55.7922)" fill="white" stroke="black" stroke-width="2"/>
<path d="M72.3473 52.8615L85.9071 104.024C87.0391 108.295 84.4945 112.674 80.2237 113.806C75.9528 114.938 71.5731 112.394 70.4411 108.123L56.8812 56.9606C55.7493 52.6898 58.2939 48.31 62.5647 47.1781C66.8355 46.0461 71.2153 48.5907 72.3473 52.8615Z" fill="white" stroke="black" stroke-width="2"/>
<mask id="path-79-inside-5" fill="white">
<path fill-rule="evenodd" clip-rule="evenodd" d="M106.964 115.585C107.156 113.44 107.043 111.16 106.606 108.736C103.735 92.8268 86.394 93.8001 69.051 100.008C58.4591 103.799 49.9498 110.584 45.8075 117.745C42.3682 122.347 41.5144 128.666 44.1822 134.243L51.3604 149.25C54.6148 156.054 62.1784 159.661 69.5137 157.908L95.1243 151.786C98.6147 150.952 101.723 148.969 103.95 146.155L116.25 130.615C119.265 126.806 118.315 121.223 114.209 118.625L113.818 118.378C113.064 117.9 112.213 117.595 111.328 117.482C110.578 117.387 109.852 117.153 109.188 116.792L106.964 115.585Z"/>
</mask>
<path fill-rule="evenodd" clip-rule="evenodd" d="M106.964 115.585C107.156 113.44 107.043 111.16 106.606 108.736C103.735 92.8268 86.394 93.8001 69.051 100.008C58.4591 103.799 49.9498 110.584 45.8075 117.745C42.3682 122.347 41.5144 128.666 44.1822 134.243L51.3604 149.25C54.6148 156.054 62.1784 159.661 69.5137 157.908L95.1243 151.786C98.6147 150.952 101.723 148.969 103.95 146.155L116.25 130.615C119.265 126.806 118.315 121.223 114.209 118.625L113.818 118.378C113.064 117.9 112.213 117.595 111.328 117.482C110.578 117.387 109.852 117.153 109.188 116.792L106.964 115.585Z" fill="white"/>
<path d="M106.606 108.736L104.638 109.091L104.638 109.091L106.606 108.736ZM106.964 115.585L104.972 115.407L104.855 116.715L106.01 117.342L106.964 115.585ZM69.051 100.008L69.7249 101.891L69.7249 101.891L69.051 100.008ZM45.8075 117.745L47.4095 118.942L47.4799 118.848L47.5387 118.746L45.8075 117.745ZM44.1822 134.243L45.9864 133.38L45.9864 133.38L44.1822 134.243ZM51.3604 149.25L49.5562 150.113L49.5562 150.113L51.3604 149.25ZM69.5137 157.908L69.0488 155.963L69.0488 155.963L69.5137 157.908ZM95.1243 151.786L95.5892 153.732L95.5892 153.732L95.1243 151.786ZM103.95 146.155L102.382 144.913L102.382 144.913L103.95 146.155ZM116.25 130.615L117.818 131.856L117.818 131.856L116.25 130.615ZM114.209 118.625L113.14 120.316L113.14 120.316L114.209 118.625ZM113.818 118.378L114.887 116.688L114.887 116.688L113.818 118.378ZM111.328 117.482L111.58 115.498L111.58 115.498L111.328 117.482ZM109.188 116.792L108.233 118.549L108.233 118.549L109.188 116.792ZM104.638 109.091C105.047 111.358 105.146 113.458 104.972 115.407L108.956 115.763C109.165 113.422 109.04 110.962 108.574 108.38L104.638 109.091ZM69.7249 101.891C78.3001 98.8214 86.5994 97.1576 92.9756 98.0583C96.1279 98.5036 98.7036 99.5604 100.635 101.281C102.55 102.986 103.986 105.481 104.638 109.091L108.574 108.38C107.79 104.036 105.982 100.686 103.296 98.2939C100.627 95.9165 97.2449 94.6217 93.5351 94.0976C86.1874 93.0597 77.1449 94.9864 68.377 98.1247L69.7249 101.891ZM47.5387 118.746C51.3935 112.083 59.4736 105.56 69.7249 101.891L68.377 98.1247C57.4446 102.038 48.506 109.086 44.0763 116.743L47.5387 118.746ZM45.9864 133.38C43.6534 128.503 44.3959 122.974 47.4095 118.942L44.2055 116.547C40.3404 121.719 39.3754 128.829 42.3779 135.106L45.9864 133.38ZM53.1647 148.387L45.9864 133.38L42.3779 135.106L49.5562 150.113L53.1647 148.387ZM69.0488 155.963C62.6304 157.497 56.0122 154.34 53.1647 148.387L49.5562 150.113C53.2174 157.767 61.7265 161.825 69.9787 159.853L69.0488 155.963ZM94.6593 149.841L69.0488 155.963L69.9787 159.853L95.5892 153.732L94.6593 149.841ZM102.382 144.913C100.433 147.376 97.7134 149.111 94.6593 149.841L95.5892 153.732C99.5159 152.793 103.013 150.562 105.519 147.396L102.382 144.913ZM114.682 129.374L102.382 144.913L105.519 147.396L117.818 131.856L114.682 129.374ZM113.14 120.316C116.242 122.278 116.96 126.496 114.682 129.374L117.818 131.856C121.571 127.115 120.388 120.168 115.279 116.935L113.14 120.316ZM112.749 120.068L113.14 120.316L115.279 116.935L114.887 116.688L112.749 120.068ZM111.075 119.466C111.67 119.542 112.242 119.747 112.749 120.068L114.887 116.688C113.885 116.054 112.756 115.648 111.58 115.498L111.075 119.466ZM108.233 118.549C109.116 119.028 110.079 119.339 111.075 119.466L111.58 115.498C111.076 115.434 110.588 115.277 110.142 115.034L108.233 118.549ZM106.01 117.342L108.233 118.549L110.142 115.034L107.919 113.827L106.01 117.342Z" fill="black" mask="url(#path-79-inside-5)"/>
<mask id="path-81-inside-6" fill="white">
<path fill-rule="evenodd" clip-rule="evenodd" d="M130.291 99.9643C125.329 96.7001 118.66 98.0762 115.396 103.038L107.452 115.113C98.6586 110.234 87.4148 112.648 81.4589 121.04C75.0663 130.048 77.1864 142.533 86.1943 148.925C95.2022 155.318 107.687 153.198 114.079 144.19C114.624 143.423 115.106 142.631 115.528 141.82C115.815 141.483 116.085 141.124 116.334 140.745L133.364 114.859C136.628 109.897 135.252 103.229 130.291 99.9643Z"/>
</mask>
<path fill-rule="evenodd" clip-rule="evenodd" d="M130.291 99.9643C125.329 96.7001 118.66 98.0762 115.396 103.038L107.452 115.113C98.6586 110.234 87.4148 112.648 81.4589 121.04C75.0663 130.048 77.1864 142.533 86.1943 148.925C95.2022 155.318 107.687 153.198 114.079 144.19C114.624 143.423 115.106 142.631 115.528 141.82C115.815 141.483 116.085 141.124 116.334 140.745L133.364 114.859C136.628 109.897 135.252 103.229 130.291 99.9643Z" fill="white"/>
<path d="M115.396 103.038L117.067 104.137L117.067 104.137L115.396 103.038ZM107.452 115.113L106.482 116.862L108.103 117.762L109.123 116.213L107.452 115.113ZM81.4589 121.04L79.8279 119.883L79.8279 119.883L81.4589 121.04ZM86.1943 148.925L87.3518 147.294L87.3518 147.294L86.1943 148.925ZM114.079 144.19L112.448 143.033L112.448 143.033L114.079 144.19ZM115.528 141.82L114.006 140.523L113.858 140.696L113.753 140.897L115.528 141.82ZM116.334 140.745L118.005 141.844L118.005 141.844L116.334 140.745ZM133.364 114.859L135.035 115.958L135.035 115.958L133.364 114.859ZM117.067 104.137C119.724 100.098 125.152 98.978 129.191 101.635L131.39 98.2935C125.505 94.4222 117.597 96.0542 113.725 101.939L117.067 104.137ZM109.123 116.213L117.067 104.137L113.725 101.939L105.781 114.014L109.123 116.213ZM83.0899 122.198C88.4494 114.646 98.5694 112.472 106.482 116.862L108.422 113.365C98.7477 107.996 86.3801 110.65 79.8279 119.883L83.0899 122.198ZM87.3518 147.294C79.2447 141.541 77.3366 130.305 83.0899 122.198L79.8279 119.883C72.796 129.792 75.1281 143.525 85.0368 150.556L87.3518 147.294ZM112.448 143.033C106.695 151.14 95.4589 153.048 87.3518 147.294L85.0368 150.556C94.9455 157.588 108.678 155.256 115.71 145.348L112.448 143.033ZM113.753 140.897C113.374 141.627 112.939 142.341 112.448 143.033L115.71 145.348C116.308 144.505 116.838 143.635 117.302 142.742L113.753 140.897ZM114.664 139.645C114.459 139.956 114.239 140.248 114.006 140.523L117.05 143.117C117.391 142.717 117.71 142.292 118.005 141.844L114.664 139.645ZM131.693 113.759L114.664 139.645L118.005 141.844L135.035 115.958L131.693 113.759ZM129.191 101.635C133.23 104.292 134.351 109.721 131.693 113.759L135.035 115.958C138.906 110.073 137.274 102.165 131.39 98.2935L129.191 101.635Z" fill="black" mask="url(#path-81-inside-6)"/>
<path d="M55.7151 129.562C61.0893 120.333 96.3398 99.4468 115.451 123.551" stroke="black" stroke-width="2"/>
<path d="M55.363 120.444C64.6695 118.604 72.7231 122.652 78.7317 134.851" stroke="black" stroke-width="2"/>
<path fill-rule="evenodd" clip-rule="evenodd" d="M85.4747 88.487C88.3976 89.0724 91.4552 89.9411 94.6435 91.1393L95.3471 89.2672C91.6919 87.8934 88.1974 86.9371 84.8702 86.3341L85.4747 88.487ZM78.4262 85.5792C74.6288 85.3837 71.0887 85.6536 67.8179 86.2709L68.3616 88.2072C71.6261 87.6065 75.1758 87.3673 78.9991 87.6194L78.4262 85.5792ZM53.1019 94.5285C55.7862 92.6629 58.9455 90.9806 62.5578 89.7322L62.016 87.8025C58.4338 89.0308 55.2653 90.6684 52.5323 92.4997L53.1019 94.5285ZM48.0543 98.7468L47.4396 96.5575C45.0328 98.8327 43.2112 101.164 42.0072 103.231L43.7355 104.238C44.7198 102.547 46.1658 100.646 48.0543 98.7468Z" fill="black"/>
<circle cx="354" cy="229.15" r="30" fill="white" stroke="black" stroke-width="2"/>
<mask id="path-87-inside-7" fill="white">
<path fill-rule="evenodd" clip-rule="evenodd" d="M391.805 241.706C385.315 237.64 381 230.424 381 222.201C381 216.74 382.904 211.723 386.083 207.778C383.332 205.542 379.822 204.201 376 204.201H360C351.163 204.201 344 211.365 344 220.201V239.201C344 248.038 351.163 255.201 360 255.201H376C383.985 255.201 390.603 249.353 391.805 241.706Z"/>
</mask>
<path fill-rule="evenodd" clip-rule="evenodd" d="M391.805 241.706C385.315 237.64 381 230.424 381 222.201C381 216.74 382.904 211.723 386.083 207.778C383.332 205.542 379.822 204.201 376 204.201H360C351.163 204.201 344 211.365 344 220.201V239.201C344 248.038 351.163 255.201 360 255.201H376C383.985 255.201 390.603 249.353 391.805 241.706Z" fill="white"/>
<path d="M391.805 241.706L393.781 242.016L393.986 240.712L392.867 240.011L391.805 241.706ZM386.083 207.778L387.641 209.033L388.891 207.482L387.345 206.226L386.083 207.778ZM392.867 240.011C386.936 236.295 383 229.707 383 222.201H379C379 231.142 383.694 238.984 390.743 243.401L392.867 240.011ZM383 222.201C383 217.213 384.737 212.635 387.641 209.033L384.526 206.523C381.07 210.81 379 216.267 379 222.201H383ZM376 206.201C379.346 206.201 382.414 207.373 384.822 209.33L387.345 206.226C384.249 203.71 380.298 202.201 376 202.201V206.201ZM360 206.201H376V202.201H360V206.201ZM346 220.201C346 212.469 352.268 206.201 360 206.201V202.201C350.059 202.201 342 210.26 342 220.201H346ZM346 239.201V220.201H342V239.201H346ZM360 253.201C352.268 253.201 346 246.933 346 239.201H342C342 249.142 350.059 257.201 360 257.201V253.201ZM376 253.201H360V257.201H376V253.201ZM389.829 241.395C388.778 248.084 382.985 253.201 376 253.201V257.201C384.984 257.201 392.428 250.621 393.781 242.016L389.829 241.395Z" fill="black" mask="url(#path-87-inside-7)"/>
<rect x="395.621" y="236.473" width="16" height="28.2297" rx="8" transform="rotate(70.9715 395.621 236.473)" fill="white" stroke="black" stroke-width="2"/>
<rect x="380.411" y="245.177" width="9.31631" height="6.84423" rx="2.5" transform="rotate(71.2901 380.411 245.177)" fill="white" stroke="black"/>
<rect x="393.601" y="231.169" width="16" height="35.2562" rx="8" transform="rotate(70.9715 393.601 231.169)" fill="white" stroke="black" stroke-width="2"/>
<rect x="372.411" y="242.177" width="9.31631" height="6.84423" rx="2.5" transform="rotate(71.2901 372.411 242.177)" fill="white" stroke="black"/>
<mask id="path-93-inside-8" fill="white">
<path fill-rule="evenodd" clip-rule="evenodd" d="M409.223 198.769C410.282 195.452 413.363 193.201 416.844 193.201H445.879C449.208 193.201 452.188 195.262 453.364 198.376L461.414 219.703C461.585 220.155 461.713 220.608 461.8 221.057C462.582 223.804 463 226.704 463 229.701C463 247.098 448.897 261.201 431.5 261.201C421.016 261.201 411.728 256.079 406.002 248.201C403.097 249.487 399.882 250.201 396.5 250.201C383.521 250.201 373 239.68 373 226.701C373 213.723 383.521 203.201 396.5 203.201C400.281 203.201 403.853 204.094 407.017 205.68L409.223 198.769ZM402.455 217.49C400.74 216.38 398.695 215.735 396.5 215.735C390.443 215.735 385.533 220.645 385.533 226.701C385.533 232.758 390.443 237.668 396.5 237.668C398.027 237.668 399.481 237.356 400.802 236.792C400.278 234.513 400 232.139 400 229.701C400 225.371 400.874 221.246 402.455 217.49Z"/>
</mask>
<path fill-rule="evenodd" clip-rule="evenodd" d="M409.223 198.769C410.282 195.452 413.363 193.201 416.844 193.201H445.879C449.208 193.201 452.188 195.262 453.364 198.376L461.414 219.703C461.585 220.155 461.713 220.608 461.8 221.057C462.582 223.804 463 226.704 463 229.701C463 247.098 448.897 261.201 431.5 261.201C421.016 261.201 411.728 256.079 406.002 248.201C403.097 249.487 399.882 250.201 396.5 250.201C383.521 250.201 373 239.68 373 226.701C373 213.723 383.521 203.201 396.5 203.201C400.281 203.201 403.853 204.094 407.017 205.68L409.223 198.769ZM402.455 217.49C400.74 216.38 398.695 215.735 396.5 215.735C390.443 215.735 385.533 220.645 385.533 226.701C385.533 232.758 390.443 237.668 396.5 237.668C398.027 237.668 399.481 237.356 400.802 236.792C400.278 234.513 400 232.139 400 229.701C400 225.371 400.874 221.246 402.455 217.49Z" fill="white"/>
<path d="M409.223 198.769L411.128 199.377L411.128 199.377L409.223 198.769ZM453.364 198.376L451.493 199.082L451.493 199.082L453.364 198.376ZM461.414 219.703L459.543 220.409L459.543 220.409L461.414 219.703ZM461.8 221.057L459.836 221.438L459.853 221.522L459.876 221.605L461.8 221.057ZM406.002 248.201L407.62 247.025L406.67 245.718L405.193 246.372L406.002 248.201ZM407.017 205.68L406.121 207.468L408.212 208.516L408.923 206.288L407.017 205.68ZM402.455 217.49L404.298 218.266L404.948 216.723L403.542 215.812L402.455 217.49ZM400.802 236.792L401.587 238.632L403.126 237.975L402.751 236.344L400.802 236.792ZM416.844 191.201C412.493 191.201 408.641 194.015 407.318 198.161L411.128 199.377C411.922 196.89 414.234 195.201 416.844 195.201V191.201ZM445.879 191.201H416.844V195.201H445.879V191.201ZM455.235 197.67C453.766 193.777 450.04 191.201 445.879 191.201V195.201C448.376 195.201 450.611 196.747 451.493 199.082L455.235 197.67ZM463.285 218.997L455.235 197.67L451.493 199.082L459.543 220.409L463.285 218.997ZM463.763 220.677C463.654 220.115 463.496 219.554 463.285 218.997L459.543 220.409C459.674 220.757 459.771 221.1 459.836 221.438L463.763 220.677ZM465 229.701C465 226.517 464.556 223.433 463.723 220.51L459.876 221.605C460.608 224.175 461 226.891 461 229.701H465ZM431.5 263.201C450.002 263.201 465 248.203 465 229.701H461C461 245.994 447.793 259.201 431.5 259.201V263.201ZM404.385 249.377C410.47 257.75 420.349 263.201 431.5 263.201V259.201C421.683 259.201 412.986 254.408 407.62 247.025L404.385 249.377ZM396.5 252.201C400.166 252.201 403.656 251.426 406.812 250.03L405.193 246.372C402.537 247.547 399.598 248.201 396.5 248.201V252.201ZM371 226.701C371 240.785 382.417 252.201 396.5 252.201V248.201C384.626 248.201 375 238.575 375 226.701H371ZM396.5 201.201C382.417 201.201 371 212.618 371 226.701H375C375 214.827 384.626 205.201 396.5 205.201V201.201ZM407.914 203.892C404.477 202.17 400.599 201.201 396.5 201.201V205.201C399.963 205.201 403.229 206.018 406.121 207.468L407.914 203.892ZM407.318 198.161L405.112 205.072L408.923 206.288L411.128 199.377L407.318 198.161ZM403.542 215.812C401.513 214.498 399.093 213.735 396.5 213.735V217.735C398.298 217.735 399.967 218.262 401.367 219.169L403.542 215.812ZM396.5 213.735C389.339 213.735 383.533 219.54 383.533 226.701H387.533C387.533 221.749 391.548 217.735 396.5 217.735V213.735ZM383.533 226.701C383.533 233.863 389.339 239.668 396.5 239.668V235.668C391.548 235.668 387.533 231.653 387.533 226.701H383.533ZM396.5 239.668C398.302 239.668 400.022 239.299 401.587 238.632L400.017 234.953C398.939 235.412 397.752 235.668 396.5 235.668V239.668ZM398 229.701C398 232.291 398.295 234.815 398.853 237.24L402.751 236.344C402.26 234.211 402 231.988 402 229.701H398ZM400.611 216.715C398.929 220.711 398 225.1 398 229.701H402C402 225.643 402.819 221.78 404.298 218.266L400.611 216.715Z" fill="black" mask="url(#path-93-inside-8)"/>
<rect x="414" y="197" width="34" height="7" rx="3.5" fill="black"/>
<circle cx="431.5" cy="227.701" r="10.5" fill="#00704A"/>
<mask id="path-97-inside-9" fill="white">
<path d="M387.732 224.136C392.431 222.515 397.554 225.011 399.175 229.709V229.709C400.795 234.408 398.3 239.531 393.601 241.152L373.377 248.127C368.678 249.748 363.555 247.252 361.934 242.553V242.553C360.314 237.854 362.809 232.731 367.508 231.111L387.732 224.136Z"/>
</mask>
<path d="M387.732 224.136C392.431 222.515 397.554 225.011 399.175 229.709V229.709C400.795 234.408 398.3 239.531 393.601 241.152L373.377 248.127C368.678 249.748 363.555 247.252 361.934 242.553V242.553C360.314 237.854 362.809 232.731 367.508 231.111L387.732 224.136Z" fill="white"/>
<path d="M393.601 241.152L392.949 239.261L393.601 241.152ZM392.949 239.261L372.725 246.236L374.029 250.018L394.253 243.043L392.949 239.261ZM368.16 233.001L388.384 226.026L387.08 222.245L366.856 229.22L368.16 233.001ZM363.825 241.901C362.564 238.246 364.505 234.262 368.16 233.001L366.856 229.22C361.113 231.201 358.063 237.462 360.043 243.205L363.825 241.901ZM372.725 246.236C369.07 247.497 365.085 245.556 363.825 241.901L360.043 243.205C362.024 248.948 368.286 251.999 374.029 250.018L372.725 246.236ZM397.284 230.362C398.545 234.016 396.604 238.001 392.949 239.261L394.253 243.043C399.996 241.062 403.046 234.801 401.066 229.057L397.284 230.362ZM401.066 229.057C399.085 223.314 392.823 220.264 387.08 222.245L388.384 226.026C392.039 224.766 396.024 226.707 397.284 230.362L401.066 229.057Z" fill="black" mask="url(#path-97-inside-9)"/>
<rect x="373.411" y="234.177" width="9.31631" height="6.84423" rx="2.5" transform="rotate(71.2901 373.411 234.177)" fill="white" stroke="black"/>
<mask id="path-100-inside-10" fill="white">
<path fill-rule="evenodd" clip-rule="evenodd" d="M397.439 191.68C397.306 191.282 396.876 191.067 396.478 191.2L362.086 202.677C353.458 202.142 345.651 208.212 344.204 216.925C342.66 226.228 348.949 235.022 358.252 236.566C367.555 238.111 376.348 231.822 377.893 222.519C378.315 219.975 378.152 217.47 377.501 215.14L387.362 211.849C395.715 209.062 400.226 200.032 397.439 191.68Z"/>
</mask>
<path fill-rule="evenodd" clip-rule="evenodd" d="M397.439 191.68C397.306 191.282 396.876 191.067 396.478 191.2L362.086 202.677C353.458 202.142 345.651 208.212 344.204 216.925C342.66 226.228 348.949 235.022 358.252 236.566C367.555 238.111 376.348 231.822 377.893 222.519C378.315 219.975 378.152 217.47 377.501 215.14L387.362 211.849C395.715 209.062 400.226 200.032 397.439 191.68Z" fill="white"/>
<path d="M396.478 191.2L395.845 189.303L395.845 189.303L396.478 191.2ZM397.439 191.68L395.541 192.313L395.541 192.313L397.439 191.68ZM362.086 202.677L361.962 204.673L362.35 204.697L362.719 204.574L362.086 202.677ZM377.501 215.14L376.868 213.243L375.063 213.845L375.575 215.678L377.501 215.14ZM387.362 211.849L386.729 209.952L386.729 209.952L387.362 211.849ZM397.111 193.097C396.461 193.314 395.758 192.963 395.541 192.313L399.336 191.047C398.853 189.601 397.291 188.821 395.845 189.303L397.111 193.097ZM362.719 204.574L397.111 193.097L395.845 189.303L361.452 200.78L362.719 204.574ZM346.177 217.253C347.454 209.561 354.346 204.201 361.962 204.673L362.209 200.681C352.569 200.083 343.847 206.862 342.231 216.598L346.177 217.253ZM358.579 234.593C350.366 233.23 344.813 225.466 346.177 217.253L342.231 216.598C340.506 226.99 347.532 236.814 357.924 238.539L358.579 234.593ZM375.92 222.191C374.556 230.404 366.793 235.957 358.579 234.593L357.924 238.539C368.317 240.265 378.14 233.239 379.866 222.846L375.92 222.191ZM375.575 215.678C376.148 217.732 376.293 219.942 375.92 222.191L379.866 222.846C380.337 220.008 380.155 217.208 379.428 214.602L375.575 215.678ZM386.729 209.952L376.868 213.243L378.134 217.037L387.996 213.747L386.729 209.952ZM395.541 192.313C397.979 199.617 394.034 207.515 386.729 209.952L387.996 213.747C397.395 210.61 402.473 200.447 399.336 191.047L395.541 192.313Z" fill="black" mask="url(#path-100-inside-10)"/>
<rect x="395.141" y="211.347" width="16" height="31.5394" rx="8" transform="rotate(71.2901 395.141 211.347)" fill="white" stroke="black" stroke-width="2"/>
<rect x="377.411" y="221.177" width="9.31631" height="6.84423" rx="2.5" transform="rotate(71.2901 377.411 221.177)" fill="white" stroke="black"/>
<path fill-rule="evenodd" clip-rule="evenodd" d="M232.87 23.2828C233.513 22.6617 234.586 23.1326 234.565 24.0265L234.478 27.5848L237.123 25.1799C237.763 24.5977 238.791 25.0487 238.796 25.9141L238.83 31.8531C238.834 32.5772 238.091 33.0655 237.428 32.7745L234.03 31.2833C233.755 31.5024 233.367 31.576 233.005 31.4171L229.735 29.9818L229.746 31.8531C229.75 32.5772 229.007 33.0655 228.344 32.7745L223.916 30.8309C223.253 30.5399 223.109 29.6625 223.645 29.1753L228.039 25.1799C228.679 24.5977 229.707 25.0487 229.712 25.9141L229.714 26.3302L232.87 23.2828Z" fill="black"/>
<mask id="path-105-outside-11" maskUnits="userSpaceOnUse" x="200" y="81.1552" width="62" height="19" fill="black">
<rect fill="white" x="200" y="81.1552" width="62" height="19"/>
<path fill-rule="evenodd" clip-rule="evenodd" d="M260.768 99.2013C261.124 97.1327 261.18 94.9728 260.896 92.7725C260.482 89.5761 259.384 86.6286 257.766 84.0624L257.574 85.7094C258.759 87.8825 259.568 90.3057 259.904 92.9008C260.177 95.0112 260.121 97.0802 259.777 99.0598H256.017L256 99.2013H260.768ZM205.559 83.4367C203.68 86.2208 202.443 89.5086 202.097 93.1218C201.902 95.1598 202.005 97.1529 202.369 99.0598H209.465L209.5 99.2013H201.378C201.003 97.216 200.899 95.1435 201.102 93.0265C201.495 88.923 202.985 85.2198 205.238 82.1552L205.559 83.4367Z"/>
</mask>
<path fill-rule="evenodd" clip-rule="evenodd" d="M260.768 99.2013C261.124 97.1327 261.18 94.9728 260.896 92.7725C260.482 89.5761 259.384 86.6286 257.766 84.0624L257.574 85.7094C258.759 87.8825 259.568 90.3057 259.904 92.9008C260.177 95.0112 260.121 97.0802 259.777 99.0598H256.017L256 99.2013H260.768ZM205.559 83.4367C203.68 86.2208 202.443 89.5086 202.097 93.1218C201.902 95.1598 202.005 97.1529 202.369 99.0598H209.465L209.5 99.2013H201.378C201.003 97.216 200.899 95.1435 201.102 93.0265C201.495 88.923 202.985 85.2198 205.238 82.1552L205.559 83.4367Z" fill="black"/>
<path d="M260.896 92.7725L261.144 92.7404L261.144 92.7404L260.896 92.7725ZM260.768 99.2013V99.4513H260.978L261.014 99.2437L260.768 99.2013ZM257.766 84.0624L257.978 83.9291L257.6 83.3301L257.518 84.0335L257.766 84.0624ZM257.574 85.7094L257.326 85.6804L257.317 85.7594L257.355 85.8291L257.574 85.7094ZM259.904 92.9008L259.656 92.9329L259.656 92.9329L259.904 92.9008ZM259.777 99.0598V99.3098H259.988L260.024 99.1026L259.777 99.0598ZM256.017 99.0598V98.8098H255.794L255.768 99.0309L256.017 99.0598ZM256 99.2013L255.752 99.1723L255.719 99.4513H256V99.2013ZM202.097 93.1218L202.346 93.1456L202.346 93.1456L202.097 93.1218ZM205.559 83.4367L205.766 83.5765L205.828 83.4841L205.801 83.376L205.559 83.4367ZM202.369 99.0598L202.123 99.1067L202.162 99.3098H202.369V99.0598ZM209.465 99.0598L209.707 98.9992L209.66 98.8098H209.465V99.0598ZM209.5 99.2013V99.4513H209.82L209.743 99.1406L209.5 99.2013ZM201.378 99.2013L201.132 99.2476L201.171 99.4513H201.378V99.2013ZM201.102 93.0265L201.351 93.0503L201.351 93.0503L201.102 93.0265ZM205.238 82.1552L205.481 82.0945L205.352 81.5787L205.037 82.007L205.238 82.1552ZM260.648 92.8046C260.929 94.9799 260.873 97.1147 260.521 99.1589L261.014 99.2437C261.374 97.1507 261.432 94.9657 261.144 92.7404L260.648 92.8046ZM257.555 84.1958C259.154 86.7319 260.239 89.645 260.648 92.8046L261.144 92.7404C260.725 89.5073 259.615 86.5253 257.978 83.9291L257.555 84.1958ZM257.518 84.0335L257.326 85.6804L257.822 85.7384L258.015 84.0914L257.518 84.0335ZM257.355 85.8291C258.525 87.9755 259.324 90.369 259.656 92.9329L260.152 92.8687C259.812 90.2424 258.993 87.7896 257.794 85.5897L257.355 85.8291ZM259.656 92.9329C259.926 95.0182 259.87 97.062 259.531 99.0171L260.024 99.1026C260.371 97.0985 260.428 95.0042 260.152 92.8687L259.656 92.9329ZM259.777 98.8098H256.017V99.3098H259.777V98.8098ZM255.768 99.0309L255.752 99.1723L256.248 99.2303L256.265 99.0888L255.768 99.0309ZM256 99.4513H260.768V98.9513H256V99.4513ZM202.346 93.1456C202.688 89.575 203.91 86.3269 205.766 83.5765L205.352 83.2968C203.45 86.1147 202.198 89.4422 201.848 93.098L202.346 93.1456ZM202.614 99.013C202.255 97.1291 202.153 95.1598 202.346 93.1456L201.848 93.098C201.651 95.1598 201.755 97.1767 202.123 99.1067L202.614 99.013ZM209.465 98.8098H202.369V99.3098H209.465V98.8098ZM209.743 99.1406L209.707 98.9992L209.222 99.1205L209.257 99.2619L209.743 99.1406ZM201.378 99.4513H209.5V98.9513H201.378V99.4513ZM201.624 99.1549C201.253 97.1926 201.15 95.1436 201.351 93.0503L200.853 93.0027C200.648 95.1433 200.753 97.2395 201.132 99.2476L201.624 99.1549ZM201.351 93.0503C201.739 88.993 203.212 85.3326 205.44 82.3033L205.037 82.007C202.757 85.1071 201.25 88.853 200.853 93.0027L201.351 93.0503ZM205.801 83.376L205.481 82.0945L204.996 82.2158L205.316 83.4973L205.801 83.376Z" fill="black" mask="url(#path-105-outside-11)"/>
<path d="M345 236.201C345.5 238.868 349.8 242.601 363 236.201" stroke="black" stroke-width="2"/>
<path d="M394 193.701C392.5 197.701 388.2 200.001 383 197.201" stroke="black"/>
<defs>
<clipPath id="clip0">
<rect width="21" height="28" fill="white" transform="translate(276.013 235.201)"/>
</clipPath>
<clipPath id="clip1">
<rect width="44.1635" height="38.8639" fill="white" transform="translate(154.013 207.512) rotate(-24.4946)"/>
</clipPath>
</defs>
</svg>
